<svg width="1100.000000pt" height="1635.000000pt" viewBox="0 0 1100.000000 1635.000000" xmlns="http://www.w3.org/2000/svg">
  <g transform="translate(0.000000,1635.000000) scale(0.100000,-0.100000)" fill="#fefefe" stroke="none">
    <path d="M0 8175 c0 -8175 0 -8175 5500 -8175 5500 0 5500 0 5500 8175 0 8175
0 8175 -5500 8175 -5500 0 -5500 0 -5500 -8175z m5477 2125 c6 0 15 -10 19
-22 9 -30 -21 -51 -62 -43 -115 21 -183 -154 -106 -273 14 -21 222 -5 222 17
0 63 83 189 142 215 86 37 238 8 238 -45 0 -43 -42 -69 -71 -43 -22 20 -125
26 -138 8 -3 -5 -15 -14 -26 -20 -72 -39 -72 -152 0 -172 53 -15 218 -92 223
-104 2 -5 8 -8 12 -8 5 0 24 -13 42 -30 18 -16 36 -30 40 -30 5 0 16 -8 27
-17 58 -55 80 -73 90 -73 6 0 11 -4 11 -9 0 -4 10 -19 23 -33 12 -13 33 -41
47 -61 14 -20 28 -37 33 -37 4 0 7 -6 7 -14 0 -7 7 -20 17 -27 23 -20 126
-239 161 -344 97 -294 75 -598 -64 -880 -24 -50 -44 -94 -44 -98 0 -3 -17 -32
-37 -63 -21 -31 -42 -65 -48 -75 -5 -11 -17 -21 -26 -24 -9 -3 -33 -22 -52
-43 -20 -20 -45 -44 -54 -54 -21 -19 -193 -88 -241 -95 -28 -5 -33 -9 -28 -27
15 -66 64 -378 86 -551 7 -49 16 -120 21 -157 5 -37 9 -95 9 -130 0 -35 4 -79
9 -98 5 -19 12 -87 15 -150 4 -63 9 -141 12 -173 7 -60 -10 -97 -42 -97 -17 0
-48 46 -40 59 11 17 -34 455 -89 876 -46 347 -60 417 -84 413 -9 -1 -26 2 -39
6 -13 4 -120 -7 -267 -29 -263 -40 -275 -39 -275 11 0 17 -6 24 -20 24 -11 0
-20 -4 -20 -10 0 -5 -6 -10 -13 -10 -11 0 -32 -110 -57 -315 -11 -79 -60 -351
-90 -490 -5 -22 -23 -123 -40 -225 -55 -332 -65 -359 -122 -329 -21 11 -21 16
-8 72 9 38 33 173 76 427 9 52 29 165 45 250 15 85 33 184 39 220 6 36 18 106
26 155 22 130 33 239 26 246 -4 3 -29 12 -57 19 -62 16 -153 58 -179 82 -11
10 -25 18 -31 18 -6 0 -17 9 -25 20 -8 11 -18 20 -23 20 -4 0 -19 13 -33 29
-14 17 -34 33 -44 36 -11 4 -20 11 -20 16 0 5 -4 15 -10 22 -44 54 -62 82 -95
152 -20 44 -58 143 -83 220 -29 89 -56 154 -75 178 -28 36 -28 39 -13 62 15
22 15 30 0 97 -23 107 -5 287 41 418 19 53 77 183 85 190 3 3 19 28 35 55 15
28 56 79 89 114 93 99 189 191 197 191 4 0 14 8 21 18 7 9 25 23 41 31 31 16
33 36 12 96 -63 173 88 402 218 334 66 -35 40 -89 -42 -89 -88 0 -138 -110
-99 -217 14 -39 43 -43 100 -14 20 10 82 29 138 42 102 24 102 24 93 69 -14
80 -9 201 11 242 32 65 144 117 196 91 14 -7 30 -13 37 -13z" />
    <path d="M5315 9865 c-5 -2 -43 -9 -83 -16 -40 -7 -77 -18 -82 -25 -6 -6 -19
-10 -30 -7 -34 9 -300 -131 -300 -159 0 -4 -6 -8 -13 -8 -17 0 -187 -161 -187
-177 0 -7 -4 -13 -9 -13 -4 0 -21 -19 -37 -42 -16 -24 -31 -45 -34 -48 -15
-13 -50 -79 -50 -94 0 -9 -4 -16 -8 -16 -9 0 -40 -72 -67 -154 -21 -65 -44
-222 -39 -266 17 -133 8 -120 78 -120 136 0 172 -132 43 -157 -35 -7 -43 -13
-45 -33 -5 -43 86 -314 112 -335 7 -5 16 -21 19 -35 4 -14 25 -45 47 -69 22
-25 40 -47 40 -51 0 -21 229 -160 264 -160 7 0 26 -6 42 -14 16 -8 58 -16 92
-19 71 -6 72 -1 36 262 -8 58 -14 125 -14 150 0 67 -8 84 -43 101 -123 59 69
99 500 103 88 1 96 -8 126 -136 24 -102 67 -325 82 -420 6 -37 6 -38 43 -31
277 47 456 233 556 579 38 132 38 135 -29 135 -59 0 -126 26 -143 56 -36 65
64 115 182 91 105 -22 -40 567 -176 713 -10 11 -18 23 -18 29 0 5 -7 11 -15
15 -8 3 -15 11 -15 18 0 22 -193 198 -217 198 -7 0 -13 5 -13 10 0 6 -7 10
-15 10 -8 0 -15 4 -15 9 0 5 -21 19 -47 32 -27 12 -55 28 -63 34 -58 47 -356
86 -455 60z m-732 -986 c28 -58 -23 -114 -65 -71 -28 27 -30 90 -4 95 45 9 54
6 69 -24z m1617 -45 c0 -54 -57 -73 -86 -29 -26 40 14 82 57 59 16 -8 29 -21
29 -30z" />
    <path d="M5243 8368 c-93 -10 -93 -10 -93 -39 0 -36 26 -44 124 -36 39 3 109
9 156 12 146 10 150 12 150 45 0 33 -124 40 -337 18z" />
  </g>
  <g transform="translate(0.000000,1635.000000) scale(0.100000,-0.100000)" fill="#222222" stroke="none">
    <path d="M5350 10235 c0 -9 9 -15 25 -15 16 0 25 6 25 15 0 9 -9 15 -25 15
-16 0 -25 -6 -25 -15z" />
    <path d="M5420 10235 c0 -9 9 -15 25 -15 16 0 25 6 25 15 0 9 -9 15 -25 15
-16 0 -25 -6 -25 -15z" />
    <path d="M5306 10204 c-4 -15 -4 -29 -1 -33 8 -7 35 28 35 46 0 24 -28 13 -34
-13z" />
    <path d="M5708 10213 c-10 -2 -18 -11 -18 -20 0 -11 6 -14 23 -9 12 3 25 6 30
6 4 0 7 7 7 15 0 15 -9 17 -42 8z" />
    <path d="M5830 10190 c0 -20 5 -30 15 -30 10 0 15 10 15 30 0 20 -5 30 -15 30
-10 0 -15 -10 -15 -30z" />
    <path d="M5880 10193 c0 -7 7 -13 15 -13 8 0 15 -4 15 -10 0 -5 7 -10 15 -10
8 0 15 7 15 15 0 8 -7 15 -15 15 -8 0 -15 4 -15 8 0 5 -7 9 -15 9 -8 0 -15 -6
-15 -14z" />
    <path d="M5800 10125 c0 -8 9 -15 20 -15 11 0 20 7 20 15 0 8 -9 15 -20 15
-11 0 -20 -7 -20 -15z" />
    <path d="M5620 10014 c0 -9 7 -14 17 -12 25 5 28 28 4 28 -12 0 -21 -6 -21
-16z" />
    <path d="M5530 9956 c0 -15 -192 -28 -198 -14 -6 14 -50 9 -66 -7 -8 -8 -21
-15 -29 -15 -8 0 -20 -7 -27 -15 -7 -8 -23 -15 -36 -15 -15 0 -24 -6 -24 -15
0 -8 7 -15 15 -15 9 0 18 -7 21 -15 8 -19 23 -19 38 -1 13 16 76 32 76 19 0
-5 78 -8 173 -8 145 1 174 -1 184 -14 11 -14 14 -14 23 -1 8 13 10 13 10 -2 0
-10 7 -18 15 -18 8 0 15 4 15 9 0 5 9 7 21 4 13 -4 16 -8 9 -13 -8 -5 -6 -11
5 -20 13 -10 15 -9 16 6 0 11 3 14 6 7 2 -7 11 -13 19 -13 8 0 14 -5 14 -11 0
-6 9 -9 20 -6 15 4 20 0 20 -14 0 -16 6 -19 28 -17 23 3 27 0 24 -19 -2 -16 2
-23 12 -23 9 0 16 5 16 10 0 6 7 10 15 10 8 0 15 -4 15 -10 0 -5 7 -10 15 -10
8 0 15 7 15 15 0 8 -4 15 -10 15 -5 0 -10 11 -10 25 0 14 -4 25 -10 25 -5 0
-10 7 -10 15 0 8 -7 15 -15 15 -8 0 -15 -7 -15 -15 0 -13 -4 -12 -22 4 -12 12
-30 23 -40 27 -10 3 -18 12 -18 20 0 8 -10 14 -22 14 -26 1 -58 22 -58 39 0
18 -28 13 -32 -6 -3 -16 -4 -16 -20 0 -9 9 -21 17 -26 17 -6 0 -13 7 -16 16
-4 10 -13 13 -26 9 -13 -4 -22 -1 -26 9 -7 19 -30 21 -38 4 -5 -10 -7 -10 -12
0 -8 17 -34 15 -34 -2z" />
    <path d="M4890 9876 c0 -17 5 -26 16 -26 10 0 14 7 12 22 -5 32 -28 35 -28 4z" />
    <path d="M4890 9821 c0 -11 -5 -23 -11 -26 -31 -20 -33 -105 -2 -105 10 0 14
7 10 20 -3 13 0 20 8 20 7 0 15 3 17 8 2 4 29 19 61 35 90 43 93 78 4 60 -29
-6 -53 -7 -55 -2 -7 17 -32 9 -32 -10z" />
    <path d="M6006 9668 c-7 -36 0 -43 55 -52 24 -4 39 -12 39 -20 0 -28 53 -35
77 -10 12 12 13 18 4 27 -9 9 -14 9 -20 -2 -7 -11 -13 -8 -26 12 -9 14 -29 29
-45 32 -16 4 -32 15 -35 26 -10 32 -42 23 -49 -13z" />
    <path d="M4710 9625 c0 -16 -6 -25 -16 -25 -12 0 -15 -6 -10 -25 4 -14 2 -25
-4 -25 -5 0 -10 -7 -10 -15 0 -14 4 -13 25 2 15 11 23 25 21 36 -2 10 2 17 10
17 8 0 14 3 14 8 0 4 3 17 6 30 5 18 2 22 -15 22 -16 0 -21 -6 -21 -25z" />
    <path d="M6230 9500 c0 -20 5 -30 15 -30 10 0 15 10 15 30 0 20 -5 30 -15 30
-10 0 -15 -10 -15 -30z" />
    <path d="M4513 9365 c-7 -8 -13 -21 -13 -30 0 -21 26 -19 34 3 3 9 9 23 12 30
8 17 -18 15 -33 -3z" />
    <path d="M6303 9263 c-24 -5 -30 -18 -13 -28 15 -9 60 6 60 21 0 14 -6 15 -47
7z" />
    <path d="M6380 9225 c0 -24 5 -35 15 -35 15 0 20 26 9 54 -11 28 -24 17 -24
-19z" />
    <path d="M6346 9108 c-5 -21 8 -48 18 -37 15 14 17 59 3 59 -8 0 -17 -10 -21
-22z" />
    <path d="M6440 9009 c0 -14 29 -43 36 -36 10 10 -7 47 -22 47 -8 0 -14 -5 -14
-11z" />
    <path d="M6415 8858 c8 -127 9 -128 36 -128 10 0 19 -7 19 -15 0 -8 7 -15 15
-15 12 0 15 14 15 63 0 84 -8 110 -31 104 -16 -4 -19 1 -19 26 0 48 -11 77
-27 77 -12 0 -14 -17 -8 -112z" />
    <path d="M4310 8850 c0 -5 -7 -10 -16 -10 -24 0 -13 -71 15 -99 12 -12 21 -25
21 -31 0 -5 7 -10 15 -10 8 0 15 5 15 10 0 6 9 10 20 10 11 0 20 7 20 15 0 8
-6 15 -14 15 -8 0 -17 14 -21 30 -7 34 -40 42 -48 13 -4 -14 -5 -12 -6 5 -1
13 5 22 14 22 8 0 15 9 15 20 0 11 -7 20 -15 20 -8 0 -15 -4 -15 -10z" />
    <path d="M6450 8675 c0 -21 28 -31 43 -16 9 9 8 14 -3 21 -22 14 -40 12 -40
-5z" />
    <path d="M4360 8512 c0 -11 7 -22 15 -26 8 -3 15 -12 15 -21 0 -8 5 -15 10
-15 6 0 10 -7 10 -15 0 -8 -7 -15 -15 -15 -8 0 -15 -7 -15 -16 0 -11 6 -15 20
-11 21 5 30 -18 9 -25 -16 -5 0 -58 18 -58 11 0 13 7 8 30 -4 19 -3 30 4 30 6
0 11 -12 11 -26 0 -23 3 -25 25 -20 18 5 25 2 25 -9 0 -8 6 -15 13 -15 8 0 14
7 14 15 0 8 -6 15 -14 15 -7 0 -13 6 -13 14 0 8 -9 18 -20 21 -20 6 -29 45
-10 45 6 0 10 7 10 15 0 8 -6 15 -14 15 -15 0 -26 21 -26 50 0 22 -5 25 -47
35 -29 6 -33 4 -33 -13z" />
    <path d="M5200 8445 c0 -12 -14 -15 -65 -15 -37 0 -65 4 -65 10 0 6 -7 10 -15
10 -8 0 -15 -4 -15 -10 0 -5 -7 -10 -15 -10 -8 0 -15 -7 -15 -15 0 -8 7 -15
15 -15 8 0 15 -9 15 -19 0 -11 8 -22 18 -25 31 -10 47 -51 34 -81 -18 -38 -15
-95 3 -95 10 0 16 11 17 33 0 17 5 -6 9 -53 4 -47 12 -109 17 -137 8 -48 7
-53 -10 -53 -13 0 -18 -7 -18 -25 0 -16 6 -25 16 -25 14 0 14 -2 0 -15 -15
-15 -12 -38 7 -62 7 -9 5 -13 -6 -13 -8 0 -17 7 -21 15 -3 8 -12 15 -21 15 -8
0 -15 -7 -15 -15 0 -22 -17 -18 -23 5 -5 20 -27 28 -27 10 0 -19 -38 -10 -43
10 -4 16 -11 19 -30 15 -17 -5 -26 -2 -30 9 -7 19 -37 21 -38 4 0 -7 -4 -3 -9
10 -9 22 -30 31 -30 12 0 -6 -8 -5 -19 2 -11 7 -18 15 -15 19 2 4 -3 12 -11
19 -8 7 -15 10 -15 7 0 -3 -17 10 -37 29 -21 19 -44 32 -50 29 -8 -2 -13 3
-13 14 0 10 -7 24 -15 31 -8 7 -15 19 -15 28 0 8 -3 12 -7 9 -3 -4 -12 2 -20
13 -8 11 -21 20 -29 20 -8 0 -14 7 -14 15 0 8 -6 15 -12 15 -7 0 -23 3 -35 6
-29 8 -30 -9 -3 -58 13 -25 16 -38 8 -40 -7 -3 -8 -10 -4 -17 5 -7 14 -10 22
-7 9 4 23 -11 39 -42 34 -65 62 -95 80 -88 9 3 24 -3 35 -14 11 -11 25 -20 30
-20 6 0 10 -4 10 -8 0 -5 18 -17 40 -27 22 -10 40 -24 40 -32 0 -7 11 -13 27
-13 14 0 34 -7 44 -16 9 -8 39 -19 66 -22 48 -7 48 -8 54 -50 3 -23 2 -42 -3
-42 -4 0 -8 -9 -8 -20 0 -22 25 -27 34 -7 5 10 7 10 12 0 3 -7 10 -13 15 -13
14 0 10 40 -6 56 -26 26 11 90 55 96 23 3 25 0 22 -30 -2 -18 1 -39 7 -46 14
-16 121 -12 131 5 5 7 33 11 71 11 74 -1 230 26 242 42 6 8 10 7 14 -2 3 -9
16 -11 39 -6 22 4 40 2 50 -7 13 -10 17 -10 24 1 7 12 10 11 16 -3 3 -9 12
-17 18 -17 18 0 44 -82 28 -88 -7 -2 -12 -15 -12 -29 0 -18 4 -24 15 -19 14 5
20 -6 16 -27 -1 -5 4 -24 11 -43 13 -36 37 -46 39 -16 0 10 3 12 6 5 7 -19 33
-15 33 5 0 33 -12 62 -26 62 -8 0 -14 5 -14 10 0 6 5 10 10 10 20 0 11 57 -10
63 -23 6 -27 37 -5 37 17 0 11 49 -7 61 -12 8 19 39 40 40 9 1 27 0 40 -1 14
-1 22 4 22 14 0 16 16 21 58 17 13 -1 22 4 22 13 0 9 7 12 19 9 14 -3 20 2 24
26 7 31 27 44 27 16 0 -18 16 -20 26 -3 4 6 2 14 -4 16 -12 4 9 32 23 32 10 0
35 28 35 39 0 23 -47 9 -82 -24 -39 -38 -58 -44 -58 -20 0 8 -7 15 -16 15 -11
0 -15 -6 -12 -18 6 -23 -11 -35 -82 -55 -112 -31 -164 -30 -160 4 4 25 0 39
-10 39 -5 0 -10 -7 -10 -16 0 -8 -4 -12 -10 -9 -5 3 -10 19 -10 36 0 16 -3 29
-7 29 -5 0 -9 24 -11 53 -1 28 -7 54 -12 55 -17 6 -12 102 5 102 8 0 15 7 15
15 0 8 -7 15 -15 15 -8 0 -15 -4 -15 -9 0 -5 -9 -11 -20 -14 -18 -5 -19 -2
-14 34 6 37 5 39 -19 39 -44 0 -59 9 -42 27 19 19 19 53 0 53 -8 0 -15 -7 -15
-15 0 -8 -4 -15 -10 -15 -5 0 -10 -7 -10 -15 0 -8 -9 -15 -20 -15 -11 0 -20 7
-20 15 0 23 -67 20 -73 -2 -4 -16 -5 -16 -6 1 -1 14 -6 17 -23 12 -13 -3 -58
-6 -100 -6 -71 0 -78 -2 -78 -20 0 -11 -7 -20 -15 -20 -8 0 -15 7 -15 15 0 9
-9 15 -24 15 -33 0 -41 35 -15 64 19 20 31 21 215 25 107 2 194 7 194 12 0 5
7 9 15 9 23 0 18 38 -6 45 -21 7 -272 -2 -321 -11 -21 -4 -28 -2 -28 10 0 9
-7 16 -15 16 -8 0 -15 -7 -15 -15z" />
    <path d="M4463 8270 c3 -13 0 -20 -9 -20 -8 0 -14 -7 -14 -15 0 -8 7 -15 15
-15 8 0 15 5 15 10 0 6 7 10 15 10 16 0 19 9 9 34 -9 24 -37 20 -31 -4z" />
    <path d="M6194 8085 c4 -14 2 -25 -4 -25 -5 0 -10 -7 -10 -15 0 -19 17 -19 36
0 18 18 8 65 -13 65 -11 0 -13 -7 -9 -25z" />
    <path d="M5710 8076 c0 -17 5 -26 16 -26 10 0 14 7 12 22 -5 32 -28 35 -28 4z" />
    <path d="M5010 7610 c0 -23 8 -24 44 -10 37 14 32 30 -9 30 -28 0 -35 -4 -35
-20z" />
    <path d="M5030 7500 c0 -32 14 -40 24 -14 10 27 7 44 -9 44 -10 0 -15 -10 -15
-30z" />
    <path d="M5830 7400 c0 -11 7 -20 15 -20 8 0 15 9 15 20 0 11 -7 20 -15 20 -8
0 -15 -9 -15 -20z" />
    <path d="M5840 7340 c0 -23 4 -30 20 -30 16 0 20 7 20 30 0 23 -4 30 -20 30
-16 0 -20 -7 -20 -30z" />
    <path d="M5890 7275 c0 -8 -6 -15 -14 -15 -28 0 -24 -188 5 -198 5 -2 9 -33 9
-68 0 -52 3 -64 16 -64 14 0 15 13 10 98 -3 53 -5 110 -5 125 -1 15 -5 35 -9
45 -5 9 -6 28 -1 42 7 25 7 25 8 -2 1 -16 5 -28 10 -28 14 0 18 55 4 68 -17
17 -33 15 -33 -3z" />
    <path d="M5910 6830 c0 -20 5 -30 15 -30 10 0 15 10 15 30 0 20 -5 30 -15 30
-10 0 -15 -10 -15 -30z" />
    <path d="M5910 6745 c0 -16 6 -25 15 -25 9 0 15 9 15 25 0 16 -6 25 -15 25 -9
0 -15 -9 -15 -25z" />
    <path d="M4900 6735 c0 -22 19 -38 21 -17 0 4 2 15 4 25 2 9 -3 17 -11 17 -8
0 -14 -10 -14 -25z" />
    <path d="M5960 6675 c0 -24 5 -35 14 -35 10 0 14 10 13 35 -3 47 -27 47 -27 0z" />
  </g>
  <g transform="translate(0.000000,1635.000000) scale(0.100000,-0.100000)" fill="#1b1b1b" stroke="none">
    <path d="M5359 10322 c-8 -3 -17 -11 -21 -18 -5 -6 -17 -10 -28 -7 -14 4 -20
0 -20 -11 0 -24 -31 -55 -48 -48 -12 4 -14 0 -8 -22 5 -21 2 -32 -11 -43 -13
-10 -15 -16 -5 -19 15 -7 17 -100 1 -109 -6 -4 -7 -14 -4 -24 25 -63 18 -78
-43 -90 -63 -12 -112 -31 -112 -44 0 -4 -11 -5 -24 -1 -16 4 -25 1 -29 -10 -4
-10 -18 -16 -36 -16 -21 0 -32 -6 -36 -21 -8 -25 1 -37 17 -21 7 7 24 12 38
12 15 0 30 3 34 7 9 9 72 31 126 44 93 21 119 39 120 84 1 38 1 39 13 17 30
-54 87 -64 243 -46 47 5 53 9 61 38 10 31 10 31 17 -1 6 -26 13 -33 32 -33 15
0 24 -6 24 -15 0 -8 9 -15 20 -15 11 0 20 -4 20 -10 0 -5 10 -10 23 -10 13 0
32 -7 43 -15 10 -8 30 -15 43 -15 13 0 21 -3 18 -7 -9 -8 89 -67 126 -77 17
-4 27 -13 27 -25 0 -23 16 -37 53 -46 15 -4 27 -13 27 -20 0 -7 12 -21 27 -30
23 -15 50 -42 81 -80 4 -5 11 -18 15 -27 3 -10 11 -18 17 -18 5 0 10 -6 10
-14 0 -7 9 -16 20 -19 13 -3 18 -10 14 -21 -3 -9 -2 -16 4 -16 5 0 13 -11 16
-25 4 -14 13 -25 22 -25 8 0 12 -5 8 -11 -7 -12 -4 -19 45 -117 17 -34 31 -68
31 -75 0 -6 7 -25 15 -41 25 -47 48 -148 61 -270 5 -45 11 -60 25 -63 10 -3
20 -15 22 -27 4 -17 -1 68 -8 131 -4 41 -18 73 -29 66 -6 -4 -5 1 3 10 10 13
11 25 3 54 -22 77 -45 138 -59 155 -8 9 -12 22 -8 27 3 6 2 11 -2 11 -5 0 -14
20 -21 45 -7 25 -16 45 -22 45 -5 0 -10 8 -10 19 0 10 -11 35 -25 55 -14 20
-25 41 -25 45 0 5 -15 21 -34 37 -18 16 -37 40 -41 54 -9 27 -29 51 -39 45 -3
-3 -4 -2 -1 1 11 15 -30 61 -71 79 -24 11 -44 24 -44 29 0 13 -49 56 -63 56
-7 0 -18 9 -25 21 -8 12 -19 18 -27 15 -8 -3 -14 0 -12 6 2 12 -106 78 -128
78 -7 0 -18 7 -25 15 -7 8 -25 15 -40 15 -48 0 -90 28 -90 60 0 16 -6 31 -12
33 -8 3 -6 6 5 6 15 1 19 7 16 27 0 4 5 10 11 14 9 6 9 13 1 28 -6 11 -11 25
-11 30 0 14 84 52 134 58 57 8 61 29 5 37 -89 12 -179 -62 -234 -193 -10 -25
-20 -47 -22 -49 -7 -10 -204 -11 -198 -1 3 5 2 10 -3 10 -15 0 -23 28 -31 108
-4 41 -3 72 2 72 5 0 6 8 3 17 -4 10 -4 14 0 11 3 -4 12 -2 19 5 7 7 23 21 36
32 24 20 24 20 1 23 -23 4 -55 -15 -48 -27 3 -4 -4 -7 -15 -7 -38 0 -9 30 59
60 49 22 84 13 87 -22 1 -11 -2 -19 -6 -16 -4 2 -11 -1 -15 -7 -5 -9 0 -10 17
-6 13 4 29 7 36 7 25 0 34 37 15 60 -17 21 -110 42 -143 32z" />
    <path d="M5022 10194 c-17 -18 -15 -44 4 -44 8 0 12 -4 9 -10 -3 -5 -25 -10
-48 -9 -41 1 -41 1 -14 12 43 17 36 47 -11 47 -43 0 -84 -24 -76 -45 4 -8 -6
-20 -25 -30 -30 -15 -42 -35 -20 -35 5 0 3 -10 -5 -22 -9 -12 -16 -30 -16 -40
0 -10 -4 -18 -10 -18 -16 0 -12 -116 5 -134 8 -8 12 -21 9 -29 -3 -9 -1 -25 5
-36 9 -16 8 -22 -6 -30 -10 -5 -43 -33 -73 -61 -58 -55 -123 -94 -135 -82 -4
4 -3 -2 3 -14 12 -23 -64 -126 -78 -104 -5 8 -11 6 -20 -5 -10 -12 -10 -15 4
-15 15 0 15 -2 0 -17 -23 -26 -64 -92 -64 -103 0 -6 -4 -10 -9 -10 -9 0 -86
-160 -96 -202 -4 -16 -14 -28 -22 -28 -11 0 -13 -7 -9 -25 4 -14 -2 -48 -14
-82 -27 -78 -38 -182 -19 -194 24 -15 26 -11 32 64 4 39 13 90 21 112 15 39
15 39 9 -46 -8 -116 4 -239 23 -239 11 0 13 19 10 100 -2 55 -1 100 3 100 4 0
6 26 6 58 0 31 4 66 11 77 6 11 15 39 19 62 3 23 15 52 26 64 11 12 22 40 26
62 3 23 17 51 34 68 19 19 26 35 22 47 -3 9 -3 14 2 10 4 -4 12 -2 19 5 22 23
67 87 62 87 -3 0 14 20 39 44 25 24 45 47 45 51 0 4 8 14 18 21 16 13 16 15 0
27 -18 14 10 45 118 127 36 27 49 63 38 104 -4 16 -2 26 5 26 6 0 11 -4 11
-10 0 -5 9 -10 21 -10 23 0 19 31 -7 61 -52 58 22 189 106 189 33 0 52 6 63
18 18 20 22 42 8 42 -5 0 -7 8 -4 18 6 25 -37 45 -55 26z" />
    <path d="M5853 10193 c-4 -11 1 -22 15 -31 30 -20 28 -34 -4 -26 -23 6 -25 4
-22 -17 4 -31 84 -37 82 -6 -1 9 2 17 7 17 17 0 9 19 -21 50 -33 34 -48 37
-57 13z" />
    <path d="M5706 10134 c-18 -17 -21 -44 -6 -44 24 0 69 34 70 53 0 13 -48 7
-64 -9z" />
    <path d="M5239 9866 c-2 -2 -31 -6 -65 -9 -68 -5 -204 -60 -204 -83 0 -16 26
-19 35 -4 3 6 17 10 30 10 13 0 26 4 30 9 3 5 19 12 35 16 17 4 37 13 45 22 8
8 15 10 15 5 0 -14 102 10 108 26 3 11 -19 18 -29 8z" />
    <path d="M5630 9854 c0 -11 6 -15 20 -11 11 3 18 1 14 -4 -3 -5 2 -9 10 -9 24
0 19 27 -6 34 -34 9 -38 8 -38 -10z" />
    <path d="M5752 9818 c7 -19 38 -22 38 -4 0 10 -9 16 -21 16 -12 0 -19 -5 -17
-12z" />
    <path d="M5802 9794 c2 -11 11 -20 22 -22 13 -3 17 1 14 14 -2 11 -11 20 -22
22 -13 3 -17 -1 -14 -14z" />
    <path d="M4930 9749 c0 -24 23 -21 28 4 2 10 -3 17 -12 17 -10 0 -16 -9 -16
-21z" />
    <path d="M5865 9760 c-8 -13 13 -40 31 -40 19 0 18 36 -2 44 -21 8 -22 8 -29
-4z" />
    <path d="M4880 9732 c0 -5 -16 -14 -35 -22 -19 -8 -35 -20 -35 -27 0 -7 -8
-13 -17 -13 -39 -1 -90 -70 -52 -70 15 0 79 44 79 55 0 6 14 16 31 22 17 7 28
16 25 21 -3 6 2 9 11 8 10 0 19 7 21 17 2 10 -3 17 -12 17 -9 0 -16 -4 -16 -8z" />
    <path d="M5917 9723 c-13 -12 -7 -23 14 -23 11 0 18 -4 14 -9 -3 -6 4 -15 15
-21 11 -6 18 -16 14 -21 -4 -7 3 -9 17 -7 32 4 35 26 5 38 -14 5 -26 14 -26
20 0 5 -7 10 -15 10 -8 0 -15 5 -15 10 0 11 -13 13 -23 3z" />
    <path d="M6040 9630 c-12 -7 -11 -12 3 -28 9 -10 14 -21 11 -25 -4 -4 3 -5 15
-2 12 2 21 -1 21 -9 0 -7 11 -23 25 -36 14 -13 25 -29 25 -37 0 -7 4 -13 8
-13 7 0 46 -59 46 -70 0 -3 7 -13 15 -22 9 -9 25 -34 36 -55 11 -21 24 -41 28
-44 5 -3 8 -9 8 -13 -3 -20 1 -26 15 -26 8 0 13 -4 10 -9 -4 -5 -1 -22 5 -38
7 -15 13 -32 13 -38 4 -34 19 -75 26 -75 5 0 7 -6 4 -14 -3 -8 -1 -31 5 -52 5
-22 12 -61 16 -89 3 -27 11 -65 17 -84 5 -18 8 -53 4 -77 -5 -42 -4 -44 19
-44 18 0 25 -5 25 -20 0 -13 10 -24 25 -30 25 -9 36 -25 13 -18 -16 6 -38 -15
-38 -35 0 -7 -11 -19 -25 -25 -32 -15 -55 -60 -36 -71 9 -6 10 -11 2 -15 -6
-4 -11 -15 -11 -24 0 -10 -10 -26 -21 -36 -16 -13 -18 -20 -10 -26 13 -7 5
-56 -10 -66 -5 -3 -9 -14 -9 -24 0 -20 -28 -79 -46 -95 -7 -5 -14 -22 -18 -36
-3 -15 -15 -29 -25 -32 -11 -3 -20 -13 -21 -23 -1 -44 -5 -62 -11 -58 -12 7
-39 -7 -39 -21 0 -17 -50 -66 -61 -59 -5 3 -14 -6 -20 -20 -6 -13 -22 -27 -35
-30 -13 -4 -24 -12 -24 -19 0 -9 -3 -8 -9 1 -7 11 -11 11 -22 0 -8 -8 -34 -20
-59 -27 -25 -7 -55 -17 -68 -22 -13 -5 -34 -9 -47 -9 -18 0 -25 -5 -25 -20 0
-20 86 -20 100 0 3 4 26 12 53 19 86 21 155 61 223 130 68 68 78 64 13 -6 -20
-22 -42 -49 -48 -61 -6 -12 -21 -22 -31 -22 -11 0 -20 -4 -20 -9 0 -5 -9 -13
-21 -16 -13 -4 -18 -12 -15 -21 3 -9 1 -12 -4 -9 -6 4 -27 1 -48 -6 -20 -7
-41 -13 -47 -14 -21 -1 -17 -35 5 -35 27 0 62 18 55 30 -3 4 4 6 14 3 26 -7
93 26 87 43 -3 8 0 11 8 8 15 -6 156 132 156 152 0 8 5 14 10 14 6 0 10 7 10
15 0 8 5 15 10 15 6 0 15 20 22 45 7 25 16 45 20 45 4 0 8 9 8 19 0 10 7 21
15 25 8 3 15 11 15 19 0 7 6 19 13 26 6 6 12 15 13 19 3 24 17 62 24 62 4 0 7
6 7 13 -2 19 15 91 23 102 4 6 8 34 8 64 0 29 5 56 10 60 6 4 11 15 11 26 1
11 2 52 5 90 2 39 1 53 -1 33 -4 -35 -5 -37 -26 -25 -33 18 -34 21 -41 125 -7
101 -25 213 -35 222 -12 10 -32 52 -22 45 18 -10 13 27 -9 70 -11 22 -20 43
-20 48 0 16 -62 152 -71 155 -5 2 -9 8 -9 13 0 9 -47 78 -80 116 -5 7 -10 15
-10 18 0 10 -49 55 -60 55 -5 0 -10 4 -10 9 0 16 -46 40 -60 31z" />
    <path d="M4540 8903 c-8 -3 -18 -11 -22 -17 -5 -8 -8 -7 -8 2 0 6 -7 12 -15
12 -11 0 -14 -10 -11 -39 5 -48 14 -64 32 -57 8 3 14 -1 14 -9 0 -8 7 -15 15
-15 8 0 15 5 15 11 0 14 25 39 39 39 17 0 13 30 -4 36 -8 4 -15 15 -15 25 0
19 -12 22 -40 12z" />
    <path d="M6130 8861 c-48 -8 -51 -50 -5 -66 17 -5 33 -14 36 -19 14 -19 41 3
35 28 -4 15 -1 26 6 28 18 6 1 38 -19 37 -10 -1 -34 -4 -53 -8z" />
    <path d="M4297 8763 c-12 -20 6 -73 24 -73 22 0 24 18 7 55 -11 25 -23 32 -31
18z" />
    <path d="M4340 8537 c0 -26 11 -47 26 -47 8 0 11 6 8 15 -9 23 33 19 48 -5 20
-32 50 -26 42 8 -9 36 -6 35 -69 40 -45 4 -55 2 -55 -11z" />
    <path d="M4360 8472 c0 -33 43 -142 56 -142 26 0 28 31 3 53 -17 15 -24 33
-24 57 0 25 -5 36 -17 38 -10 2 -18 -1 -18 -6z" />
    <path d="M5512 8462 c2 -11 15 -18 35 -20 34 -3 83 -45 83 -71 0 -9 13 -72 29
-141 45 -190 61 -272 61 -302 0 -31 24 -39 34 -12 9 23 7 64 -2 64 -5 0 -7 14
-6 30 1 17 -3 36 -10 43 -7 7 -12 34 -11 62 2 50 -10 89 -23 81 -4 -2 -8 19
-8 47 -2 65 -21 151 -35 155 -6 3 -6 8 0 16 13 15 0 35 -27 41 -11 2 -29 8
-39 13 -33 17 -85 13 -81 -6z" />
    <path d="M4440 8451 c0 -39 36 -101 59 -101 14 0 14 -4 -8 60 -20 56 -51 81
-51 41z" />
    <path d="M5418 8463 c-30 -5 -39 -33 -10 -33 33 0 62 12 62 26 0 8 -6 13 -12
13 -7 -1 -25 -4 -40 -6z" />
    <path d="M5178 8453 c-28 -4 -36 -17 -18 -28 17 -10 80 6 80 21 0 14 -9 15
-62 7z" />
    <path d="M5328 8453 c-31 -8 -19 -23 17 -23 24 0 35 5 35 15 0 15 -17 17 -52
8z" />
    <path d="M5025 8440 c-3 -5 -3 -15 1 -22 5 -7 3 -8 -6 -3 -10 6 -11 1 -6 -21
9 -34 24 -54 41 -54 14 0 25 -31 25 -73 0 -16 3 -26 8 -24 4 3 8 -25 8 -61 2
-86 15 -204 24 -217 4 -5 5 -22 3 -37 -3 -21 0 -28 13 -28 19 0 14 162 -6 216
-6 14 -10 51 -10 82 0 109 -9 134 -64 180 -27 22 -8 42 40 42 32 0 44 4 44 15
0 18 -104 22 -115 5z" />
    <path d="M5130 8332 c0 -15 7 -26 20 -29 11 -3 20 -9 20 -13 0 -4 7 -10 15
-14 9 -3 15 0 15 8 0 8 -9 16 -20 19 -13 3 -20 14 -20 29 0 15 -6 25 -15 25
-9 0 -15 -10 -15 -25z" />
    <path d="M4470 8333 c0 -10 43 -117 50 -123 3 -3 11 -18 18 -33 7 -15 17 -25
22 -22 6 3 10 -1 10 -9 0 -9 7 -16 15 -16 25 0 -2 75 -30 86 -7 3 -11 14 -8
25 3 11 -1 21 -11 25 -8 3 -18 21 -22 40 -5 30 -44 53 -44 27z" />
    <path d="M5590 8331 c0 -5 -3 -16 -6 -25 -4 -10 -1 -16 9 -16 14 0 27 20 27
41 0 5 -7 9 -15 9 -8 0 -15 -4 -15 -9z" />
    <path d="M4421 8321 c-16 -11 9 -88 28 -84 6 2 8 -3 5 -10 -9 -25 70 -172 87
-161 5 3 9 -4 9 -15 0 -12 9 -26 20 -33 11 -7 20 -18 20 -25 0 -7 7 -13 15
-13 19 0 20 19 1 26 -8 3 -17 17 -21 32 -4 15 -10 29 -15 32 -10 6 -90 165
-90 179 0 14 -32 81 -39 81 -3 0 -12 -4 -20 -9z" />
    <path d="M4604 8117 c-3 -10 5 -28 23 -48 30 -31 30 -31 25 0 -2 17 -9 29 -15
28 -6 -1 -11 3 -12 10 0 20 -14 27 -21 10z" />
    <path d="M4640 7951 c0 -10 48 -51 60 -51 6 0 10 -4 10 -9 0 -5 15 -15 33 -22
17 -7 39 -21 47 -31 17 -21 80 -36 80 -20 0 6 -25 23 -55 38 -30 16 -55 32
-55 36 0 4 -7 8 -15 8 -7 0 -18 6 -22 14 -14 23 -83 54 -83 37z" />
    <path d="M4810 7931 c0 -12 6 -21 16 -21 9 0 14 7 12 17 -5 25 -28 28 -28 4z" />
    <path d="M4872 7898 c2 -13 11 -24 23 -27 17 -3 18 -2 5 15 -9 11 -10 15 -2
10 6 -4 12 -5 12 -2 0 3 -9 10 -21 16 -18 10 -20 9 -17 -12z" />
    <path d="M4920 7873 c0 -9 3 -13 7 -10 3 4 12 2 20 -4 7 -6 13 -10 14 -8 7 36
6 39 -17 39 -16 0 -24 -6 -24 -17z" />
    <path d="M5125 7810 c-3 -5 -14 -10 -23 -10 -22 0 -52 -53 -52 -92 0 -34 33
-37 38 -3 7 49 13 65 22 60 6 -3 10 2 10 12 0 15 2 15 9 4 12 -18 41 -23 41
-8 -1 29 -34 55 -45 37z" />
    <path d="M5590 7775 c0 -8 8 -15 18 -15 10 0 19 7 19 15 0 8 -9 15 -19 15 -10
0 -18 -7 -18 -15z" />
    <path d="M5703 7777 c2 -6 12 -14 23 -17 12 -3 20 -16 22 -35 2 -16 8 -34 13
-39 5 -6 9 -18 9 -28 0 -10 7 -18 15 -18 28 0 7 100 -27 127 -21 16 -60 23
-55 10z" />
    <path d="M5526 7764 c-4 -10 2 -14 19 -14 14 0 25 6 25 13 0 18 -37 19 -44 1z" />
    <path d="M4987 7756 c-3 -8 -4 -33 -2 -56 3 -24 -2 -58 -11 -81 -9 -21 -13
-50 -10 -63 3 -14 2 -28 -4 -31 -6 -4 -7 -23 -4 -47 5 -27 3 -42 -6 -48 -7 -4
-13 -21 -14 -37 -2 -16 -6 -35 -10 -41 -10 -16 1 -32 22 -32 26 0 50 126 68
363 7 84 -10 124 -29 73z" />
    <path d="M5298 7743 c-10 -3 -18 -11 -18 -20 0 -10 6 -13 16 -9 9 3 29 6 45 6
17 0 29 5 29 13 0 12 -40 18 -72 10z" />
    <path d="M5830 7696 c0 -8 7 -21 15 -29 11 -12 12 -17 2 -20 -9 -4 -8 -8 3
-16 10 -7 11 -11 3 -11 -7 0 -13 -9 -13 -20 0 -14 7 -20 24 -20 23 0 28 12 14
35 -3 6 -9 29 -13 53 -6 39 -35 62 -35 28z" />
    <path d="M5047 7663 c-4 -3 -7 -24 -7 -45 0 -21 -4 -46 -10 -56 -5 -9 -24 -96
-41 -192 -33 -182 -46 -229 -33 -122 6 53 4 62 -10 62 -10 0 -16 -9 -16 -24 0
-14 -7 -32 -16 -40 -12 -13 -14 -27 -9 -65 5 -41 4 -51 -11 -59 -10 -6 -15
-16 -11 -26 4 -9 2 -16 -3 -16 -5 0 -6 -24 -3 -53 4 -38 1 -57 -9 -68 -8 -8
-15 -38 -16 -69 -1 -30 -7 -56 -12 -58 -22 -8 -9 -32 18 -33 23 -2 24 -2 5 -6
-16 -3 -23 -11 -23 -28 0 -13 -7 -30 -15 -39 -17 -17 -20 -36 -5 -36 9 0 8
-11 -7 -47 -4 -10 -7 -39 -8 -65 0 -29 -7 -53 -17 -65 -20 -22 -14 -91 8 -100
8 -3 14 -11 14 -19 0 -20 19 -17 27 4 4 9 12 20 19 24 11 7 23 52 29 108 2 14
8 49 14 79 6 29 9 57 6 61 -3 5 -1 11 4 14 5 4 7 20 5 36 -3 19 -1 30 6 30 8
0 10 9 6 25 -3 13 0 43 8 66 8 24 13 46 10 50 -3 5 1 18 8 30 10 16 10 23 2
26 -14 5 -6 43 8 43 6 0 7 11 4 24 -4 15 -1 26 6 28 7 3 12 23 12 46 1 23 5
42 9 42 5 0 7 6 4 13 -2 6 2 32 9 57 17 61 28 135 29 193 0 26 4 47 8 47 4 0
6 17 3 38 -2 24 2 43 11 54 10 11 14 30 11 53 -2 19 0 35 4 35 4 0 7 11 6 25
-2 24 -17 33 -31 18z" />
    <path d="M5785 7523 c11 -130 16 -170 27 -203 10 -31 12 -51 17 -132 1 -21 6
-28 21 -28 25 0 20 121 -9 208 -14 40 -17 62 -10 75 7 12 7 29 1 50 -6 18 -13
44 -16 60 -13 55 -37 32 -31 -30z" />
    <path d="M5856 7509 c-6 -39 0 -90 14 -124 5 -11 11 -49 14 -85 6 -93 16 -173
22 -190 3 -8 8 -62 11 -120 3 -58 8 -107 12 -110 7 -6 8 -23 14 -245 4 -128 3
-144 -4 -80 -5 44 -13 121 -19 170 -5 50 -12 108 -15 130 -2 22 -7 67 -10 100
-14 148 -26 195 -47 195 -17 0 -19 -4 -14 -27 7 -31 11 -63 20 -178 4 -44 14
-107 23 -140 14 -52 22 -170 23 -326 0 -43 53 -80 78 -55 5 6 8 235 2 231 -3
-2 -5 44 -6 101 -1 65 -5 109 -13 118 -9 10 -10 25 -3 48 5 19 5 45 0 63 -5
17 -11 62 -14 100 -2 39 -7 77 -10 85 -3 8 -8 49 -10 90 -4 78 -21 187 -32
205 -3 5 -5 26 -3 46 3 50 -25 49 -33 -2z" />
  </g>
  <g transform="translate(0.000000,1635.000000) scale(0.100000,-0.100000)" fill="#1e1e1e" stroke="none">
    <path d="M5357 10284 c-16 -9 -36 -13 -44 -10 -10 4 -13 2 -10 -8 3 -8 -1 -13
-11 -12 -13 1 -17 -7 -17 -34 0 -27 -4 -35 -17 -34 -13 1 -17 -4 -14 -20 13
-64 16 -238 4 -234 -7 3 -21 -4 -32 -13 -16 -15 -80 -33 -121 -34 -5 0 -13 -4
-17 -10 -4 -6 -8 -2 -8 8 0 9 -7 17 -15 17 -18 0 -20 -26 -2 -34 6 -3 1 -3
-13 1 -41 10 -53 9 -58 -6 -3 -10 1 -12 17 -8 11 3 19 1 15 -4 -3 -5 5 -9 17
-9 29 0 -17 -36 -83 -66 -24 -10 -45 -21 -48 -25 -3 -3 -16 -10 -30 -14 -24
-8 -24 -7 -7 16 17 23 21 31 33 67 4 11 8 13 11 5 3 -7 14 -13 24 -13 11 0 17
4 14 10 -3 6 1 7 9 4 9 -3 24 -3 34 1 17 8 -24 24 -68 27 -22 2 -43 27 -36 44
3 8 2 13 -3 10 -22 -14 -30 91 -9 112 7 7 8 12 4 12 -5 0 -3 7 4 15 18 21 32
19 25 -5 -4 -12 -2 -20 5 -20 8 0 10 11 6 34 -7 36 13 64 35 50 7 -4 9 -3 5 4
-4 7 10 12 41 14 45 3 48 5 49 30 1 24 -1 26 -14 15 -13 -10 -15 -9 -9 6 5 13
1 17 -18 17 -19 0 -23 -4 -18 -17 4 -10 2 -14 -5 -9 -6 3 -14 2 -17 -4 -4 -6
-16 -10 -28 -8 -14 2 -22 -2 -22 -12 0 -8 -7 -15 -15 -15 -9 0 -14 -8 -12 -19
3 -13 -1 -17 -12 -13 -11 4 -13 1 -9 -10 4 -10 2 -14 -5 -9 -7 4 -10 -3 -8
-21 2 -16 -1 -31 -6 -34 -12 -8 -18 -159 -5 -156 5 1 13 -11 18 -28 11 -38 1
-78 -17 -71 -8 3 -13 0 -11 -7 1 -7 -4 -11 -11 -9 -6 1 -11 -4 -10 -10 2 -7
-5 -13 -14 -13 -10 0 -25 -9 -35 -20 -18 -19 -18 -19 7 0 25 20 25 20 0 -8
-13 -15 -30 -25 -37 -23 -7 3 -10 -1 -6 -10 4 -11 0 -15 -13 -12 -11 2 -19 -3
-19 -12 -1 -8 -6 -14 -12 -13 -6 1 -10 -5 -9 -15 0 -10 -6 -16 -16 -16 -9 1
-15 -4 -12 -10 5 -16 -23 -49 -35 -41 -6 3 -9 0 -5 -8 3 -8 1 -18 -5 -22 -6
-3 -11 -11 -11 -17 0 -6 12 -1 26 13 26 24 26 24 20 2 -4 -13 -3 -23 2 -23 16
0 21 12 12 30 -10 19 47 83 70 78 7 -2 14 5 15 15 2 9 -2 17 -8 17 -5 0 -8 3
-5 6 4 3 16 0 28 -6 12 -7 20 -8 16 -2 -8 14 19 34 41 30 12 -2 18 3 17 15 -2
19 12 24 18 5 3 -7 12 -6 30 6 16 11 25 23 21 32 -3 8 -2 14 3 13 25 -4 54 3
68 16 8 8 18 15 23 15 21 0 63 26 59 37 -3 6 1 14 9 17 10 3 12 0 8 -12 -6
-14 -4 -15 9 -5 8 7 18 10 21 6 4 -3 7 -1 7 5 0 7 -6 12 -12 13 -7 0 3 6 22
13 22 8 39 10 47 4 7 -5 14 -5 18 2 3 5 13 10 21 10 8 0 12 -4 9 -10 -3 -5 -1
-10 4 -10 6 0 11 4 11 10 0 5 7 7 15 4 10 -4 15 0 15 11 0 13 -6 16 -24 11
-13 -3 -35 -2 -48 3 -23 10 -23 10 3 10 15 1 32 8 39 16 7 8 17 12 22 9 5 -3
18 3 29 15 21 23 44 27 54 11 3 -5 15 -10 26 -10 10 0 19 5 19 10 0 6 -7 10
-15 10 -7 0 -18 8 -24 18 -5 9 -13 17 -18 17 -4 0 -6 6 -5 14 2 7 -1 10 -7 7
-5 -4 -12 3 -16 14 -3 11 -11 20 -16 20 -15 0 -11 100 6 116 13 14 15 14 15
-1 0 -9 5 -13 11 -10 6 4 7 19 4 35 -12 53 51 80 121 53 13 -5 15 -3 9 8 -6
11 -5 12 6 2 16 -16 39 -17 39 -2 0 6 -7 9 -15 5 -12 -4 -13 -2 -2 15 25 41
-48 64 -106 33z" />
    <path d="M5807 10213 c-9 -2 -14 -9 -11 -15 5 -7 2 -8 -6 -3 -7 4 -15 2 -20
-4 -4 -7 -23 -13 -43 -14 -19 -1 -35 -6 -34 -12 1 -5 -6 -9 -15 -9 -10 1 -15
-3 -11 -9 4 -7 0 -8 -11 -4 -14 6 -17 3 -12 -9 8 -20 -12 -46 -28 -37 -7 3 -6
1 1 -7 10 -11 10 -17 -3 -31 -8 -9 -24 -39 -34 -65 -11 -27 -19 -40 -19 -29
-1 11 3 26 8 34 11 18 3 41 -14 41 -9 0 -13 -14 -12 -45 2 -42 0 -45 -19 -41
-14 4 -21 1 -21 -10 0 -19 75 -14 86 5 4 7 13 3 24 -9 9 -11 29 -23 44 -26 15
-4 34 -13 41 -21 17 -17 58 -17 65 1 4 10 -2 12 -23 10 -24 -3 -28 0 -23 13 5
13 2 15 -21 9 -20 -5 -26 -4 -20 5 5 8 2 10 -9 6 -9 -3 -18 0 -21 9 -3 9 -10
13 -15 10 -15 -10 -21 38 -8 74 15 42 34 65 39 48 3 -8 13 -8 36 3 31 13 47
37 18 26 -10 -4 -13 -1 -9 9 3 7 8 14 12 15 3 0 14 2 23 4 10 2 20 -1 24 -6 3
-5 14 -9 25 -9 11 0 17 5 14 10 -10 16 2 12 21 -7 11 -11 19 -14 21 -7 2 6 14
9 27 7 19 -4 24 0 28 21 3 15 3 24 0 22 -8 -9 -43 14 -37 25 4 5 -1 9 -10 9
-9 0 -13 5 -10 10 6 10 -6 11 -38 3z" />
    <path d="M5834 9849 c-9 -15 17 -30 41 -23 13 3 16 2 8 -3 -10 -7 -8 -13 6
-25 28 -24 58 -31 67 -16 15 24 12 38 -7 38 -10 0 -19 5 -19 11 0 6 -9 9 -20
6 -11 -3 -20 -1 -20 3 0 4 -10 6 -22 2 -14 -3 -19 -2 -14 6 4 7 3 12 -3 12 -5
0 -13 -5 -17 -11z" />
    <path d="M5706 9835 c6 -15 42 -30 51 -21 10 9 -18 36 -38 36 -12 0 -16 -5
-13 -15z" />
    <path d="M5830 9790 c0 -6 -4 -8 -10 -5 -5 3 -10 2 -10 -4 0 -12 35 -32 53
-30 26 3 37 -2 37 -15 0 -8 5 -18 12 -22 7 -5 8 -3 3 6 -5 9 -4 11 3 6 7 -4
12 -14 12 -21 0 -9 6 -12 17 -8 9 4 14 2 11 -3 -3 -5 -1 -13 6 -19 12 -11 56
-18 56 -9 0 9 -72 74 -82 74 -5 0 -17 7 -25 16 -9 8 -24 14 -33 11 -11 -3 -17
1 -16 11 0 9 -7 18 -16 20 -10 2 -18 -2 -18 -8z" />
    <path d="M5957 9773 c-12 -11 -8 -23 8 -23 8 0 15 -7 15 -15 0 -9 7 -18 17
-22 9 -3 31 -21 50 -40 19 -18 39 -33 45 -33 29 0 78 -74 56 -84 -10 -5 -10
-7 0 -12 15 -7 16 -25 1 -21 -6 1 -14 -4 -17 -12 -3 -10 2 -13 21 -9 25 5 39
-11 42 -44 0 -3 4 -10 9 -15 5 -5 6 -2 2 7 -5 8 3 2 18 -15 14 -16 25 -36 26
-42 0 -7 4 -13 10 -13 11 0 26 -47 21 -69 -1 -7 2 -10 7 -7 11 7 35 -42 27
-55 -4 -5 -2 -9 3 -9 5 0 12 -11 14 -25 3 -13 1 -22 -3 -19 -5 3 -9 12 -9 20
0 8 -4 14 -10 14 -16 0 -11 -24 8 -36 9 -6 25 -10 34 -8 18 2 36 -28 20 -34
-6 -2 -7 -13 -4 -24 4 -16 2 -20 -10 -16 -9 4 -15 0 -15 -8 0 -8 7 -14 16 -14
14 0 14 -2 1 -10 -11 -7 -12 -12 -4 -20 8 -8 16 -7 28 6 20 19 23 18 29 -16 2
-14 2 -19 0 -12 -5 15 -23 16 -23 1 0 -5 -6 -7 -12 -3 -7 4 -6 -1 3 -12 9 -10
19 -37 23 -59 5 -35 4 -37 -6 -15 -6 14 -10 31 -9 38 1 6 -3 12 -9 12 -5 0
-10 -11 -10 -25 0 -14 4 -25 9 -25 5 0 7 -17 5 -37 -3 -35 -2 -36 11 -19 13
17 14 16 11 -18 -1 -20 1 -39 6 -42 4 -3 8 -19 8 -35 0 -19 -4 -28 -10 -24
-12 7 -9 -32 3 -52 10 -16 67 -13 67 4 0 11 -20 17 -50 15 -3 0 -6 49 -6 109
-1 60 2 106 7 103 5 -3 9 -16 9 -30 0 -13 5 -24 11 -24 11 0 5 63 -8 84 -3 5
-7 25 -8 45 -1 20 -6 47 -10 60 -7 20 -5 23 8 18 22 -8 22 7 0 24 -11 10 -14
10 -9 2 4 -7 5 -13 1 -13 -4 0 -20 32 -30 60 -1 3 -5 14 -9 25 -15 39 -15 45
-2 45 9 0 12 7 9 20 -7 25 -20 26 -26 3 -3 -14 -7 -11 -16 12 -8 20 -9 31 -2
33 6 2 11 8 11 14 0 7 -5 6 -14 -1 -14 -12 -35 3 -22 16 3 3 -3 17 -14 30 -10
13 -16 31 -13 40 4 11 2 14 -5 9 -8 -5 -14 3 -18 24 -4 17 -11 33 -17 37 -6 4
-7 1 -2 -7 5 -9 4 -11 -4 -6 -9 6 -9 11 0 22 11 13 2 19 -23 15 -4 0 -5 5 -2
13 3 8 -3 16 -15 19 -13 3 -21 13 -21 27 0 11 -4 19 -9 15 -5 -3 -12 4 -16 15
-3 11 -11 20 -16 20 -5 0 -14 11 -19 24 -5 14 -19 30 -31 36 -17 10 -20 9 -14
-1 5 -8 4 -10 -4 -5 -6 4 -9 11 -6 15 7 12 -32 44 -45 36 -15 -9 -40 13 -40
36 0 18 -20 26 -33 12z" />
    <path d="M6057 9616 c-7 -19 12 -36 40 -36 13 0 23 -4 23 -10 0 -5 -4 -10 -10
-10 -5 0 -7 -7 -4 -15 4 -8 13 -15 21 -15 12 0 13 3 4 14 -9 11 -9 15 1 19 9
3 2 15 -20 36 -37 34 -47 38 -55 17z" />
    <path d="M4682 9568 c-7 -7 -12 -18 -12 -25 0 -20 33 0 36 21 3 19 -7 21 -24
4z" />
    <path d="M4379 9144 c-1 -5 -1 -13 0 -17 2 -13 -26 -37 -34 -29 -5 4 -5 1 -1
-6 9 -14 -2 -74 -12 -68 -4 2 -7 -9 -8 -25 -1 -30 10 -39 19 -16 3 6 6 2 6
-11 2 -39 21 -13 21 28 0 22 5 62 11 90 6 28 8 54 5 57 -3 4 -7 2 -7 -3z" />
    <path d="M4317 8933 c-4 -3 -7 -28 -7 -55 0 -27 -3 -47 -7 -45 -5 3 -8 -14 -9
-37 0 -29 4 -43 13 -43 17 0 25 28 18 68 -4 30 -4 32 9 17 22 -29 26 -22 26
42 0 33 -4 60 -10 60 -5 0 -10 -6 -10 -12 0 -10 -2 -10 -8 0 -5 7 -11 9 -15 5z" />
    <path d="M4558 8882 c4 -11 0 -14 -15 -10 -16 4 -19 2 -16 -13 6 -23 33 -26
33 -4 0 8 5 15 10 15 6 0 10 6 10 13 0 8 -6 14 -14 14 -8 0 -12 -6 -8 -15z" />
    <path d="M6452 8830 c2 -18 9 -35 16 -38 7 -2 10 2 6 12 -4 10 0 18 10 22 17
7 22 34 6 34 -5 0 -10 -5 -10 -11 0 -8 -5 -7 -16 2 -14 11 -15 9 -12 -21z" />
    <path d="M6137 8820 c4 -14 0 -20 -11 -20 -18 0 -22 -15 -6 -25 6 -3 17 1 26
9 8 9 12 16 7 16 -4 0 -2 4 6 9 16 10 6 31 -14 31 -8 0 -11 -7 -8 -20z" />
    <path d="M4355 8770 c7 -42 7 -43 -17 -37 -18 5 -25 2 -25 -8 0 -8 4 -12 9 -9
4 3 8 0 8 -5 0 -6 5 -11 11 -11 5 0 7 5 3 12 -4 7 -3 8 5 4 20 -13 61 2 55 19
-4 8 -10 15 -16 15 -5 0 -6 -4 -3 -10 3 -5 1 -10 -4 -10 -6 0 -11 15 -11 34 0
19 -5 38 -11 42 -8 5 -9 -6 -4 -36z" />
    <path d="M6475 8700 c-3 -5 -12 -7 -20 -3 -9 3 -15 -1 -15 -10 0 -8 6 -17 13
-20 18 -6 47 11 47 28 0 17 -16 20 -25 5z" />
    <path d="M6428 8563 c-11 -3 -18 -14 -18 -29 0 -14 -4 -23 -9 -20 -5 3 -8 0
-8 -7 4 -36 -16 -98 -29 -93 -8 3 -14 -1 -14 -10 0 -9 5 -12 11 -8 7 4 10 1 7
-7 -3 -8 -11 -13 -17 -11 -6 1 -11 -2 -11 -8 0 -5 4 -10 9 -10 5 0 4 -11 -2
-24 -7 -13 -15 -22 -18 -20 -4 2 -10 -3 -13 -12 -3 -8 -2 -12 4 -9 6 4 5 -5
-1 -19 -7 -14 -16 -23 -22 -19 -5 3 -6 -3 -2 -17 4 -14 3 -20 -3 -16 -5 3 -9
-2 -8 -12 0 -9 -4 -16 -11 -15 -7 2 -10 -3 -7 -11 3 -8 0 -17 -7 -22 -8 -5
-10 -3 -4 6 5 8 4 11 -3 7 -5 -4 -8 -17 -4 -29 4 -17 2 -20 -11 -15 -12 4 -14
2 -10 -10 4 -11 2 -14 -5 -9 -7 4 -10 2 -7 -7 5 -12 -31 -56 -41 -49 -13 8
-34 0 -34 -13 0 -8 -6 -15 -14 -15 -7 0 -17 -10 -21 -22 -4 -13 -8 -26 -10
-30 -1 -5 -3 -11 -4 -15 -1 -5 -5 -2 -10 6 -12 19 -41 23 -41 5 0 -8 7 -14 16
-14 8 0 12 -5 8 -11 -3 -6 -15 -9 -25 -6 -11 3 -17 2 -14 -3 7 -11 -24 -22
-37 -13 -7 4 -8 1 -3 -7 6 -10 4 -12 -8 -7 -10 4 -17 2 -17 -4 0 -7 -10 -9
-26 -5 -17 5 -24 3 -19 -4 4 -6 1 -11 -6 -9 -26 3 -36 -1 -36 -16 0 -9 6 -14
13 -11 7 3 32 10 56 16 24 7 48 16 54 21 7 6 22 12 33 14 24 4 71 35 91 60 7
8 19 15 27 15 12 0 12 -2 -1 -15 -8 -8 -17 -15 -21 -15 -6 0 -11 -4 -66 -50
-20 -16 -44 -30 -53 -30 -9 0 -16 -4 -16 -10 0 -5 -7 -10 -16 -10 -9 0 -14 -6
-11 -13 3 -8 -1 -14 -9 -14 -7 0 -11 4 -8 9 7 11 -13 10 -34 -2 -9 -5 -29 -14
-44 -20 -34 -12 -37 -30 -5 -30 24 0 48 12 50 26 1 5 14 8 29 6 19 -2 30 3 38
17 6 12 15 21 21 21 6 0 7 -5 3 -11 -4 -7 -1 -10 7 -7 8 3 13 11 11 17 -2 10
11 15 31 12 5 -1 6 3 2 9 -3 5 -1 11 4 11 6 1 17 2 24 3 6 1 11 8 9 15 -2 9 4
12 15 9 20 -5 46 15 35 28 -4 4 1 4 11 1 9 -4 17 -2 17 3 0 6 -5 10 -10 10 -6
0 6 18 27 41 21 22 44 52 51 65 7 14 18 22 24 18 6 -4 8 -3 4 4 -3 6 6 32 21
59 14 26 31 57 37 68 6 11 20 20 30 20 11 0 21 6 24 13 2 6 -1 12 -8 12 -6 0
-8 -4 -5 -10 3 -6 -1 -7 -9 -4 -13 5 -14 10 -2 32 7 15 16 39 20 54 4 19 11
26 21 22 8 -4 15 -2 15 4 0 6 -5 12 -11 14 -7 2 -2 30 15 81 14 43 26 84 26
93 0 9 5 12 12 8 7 -4 8 -3 4 4 -4 7 -8 11 -9 11 -1 -1 -10 -3 -19 -6z" />
    <path d="M4370 8529 c14 -25 5 -38 -13 -19 -10 10 -9 11 3 5 13 -8 13 -7 1 8
-8 10 -16 15 -18 13 -7 -6 17 -79 30 -91 7 -7 8 -4 3 10 -5 15 -4 17 4 9 6 -6
13 -35 14 -65 5 -78 5 -76 22 -83 8 -3 12 -2 9 4 -3 6 -4 10 -1 10 3 0 13 -14
22 -31 13 -26 13 -31 2 -26 -9 3 -15 -1 -15 -10 0 -9 7 -13 19 -10 15 4 19 0
18 -16 -3 -36 0 -48 9 -42 11 6 25 -31 16 -44 -3 -5 0 -13 6 -17 8 -5 9 -3 4
6 -6 9 -4 11 4 6 7 -5 10 -15 7 -23 -4 -9 -2 -11 6 -7 8 5 9 2 5 -10 -5 -11
-3 -15 5 -10 8 5 9 2 5 -10 -4 -10 -3 -15 3 -11 6 4 10 -7 10 -25 0 -24 4 -31
14 -27 10 4 13 1 9 -9 -3 -9 2 -14 16 -14 29 0 27 8 -18 77 -33 52 -72 136
-43 94 6 -8 17 -11 25 -8 9 3 21 -2 29 -11 9 -11 10 -14 1 -8 -8 4 -13 1 -13
-9 0 -12 6 -15 23 -10 17 5 18 4 7 -4 -12 -8 -11 -14 10 -35 27 -30 40 -33 40
-9 0 9 -3 14 -6 10 -8 -7 -35 18 -32 30 4 21 -27 64 -43 60 -20 -5 -31 15 -22
40 5 12 2 15 -10 10 -20 -7 -27 20 -13 46 11 18 -9 42 -26 31 -9 -6 -12 8 -9
49 0 15 -4 27 -10 27 -6 0 -9 9 -6 20 3 13 1 18 -6 13 -7 -4 -8 0 -4 11 4 10
3 15 -3 11 -6 -3 -10 1 -10 10 0 9 5 13 10 10 6 -3 10 3 10 14 0 33 -19 71
-35 71 -9 0 -14 -4 -11 -9 3 -4 -6 -6 -19 -3 -14 2 -22 8 -19 13 3 5 -2 9 -11
9 -13 0 -14 -4 -5 -21z m87 -32 c4 -6 0 -8 -10 -4 -25 9 -16 -63 16 -131 8
-16 7 -26 -1 -34 -9 -9 -12 -7 -12 10 0 12 -4 30 -10 40 -10 17 -50 119 -50
127 0 8 61 1 67 -8z" />
    <path d="M5453 8455 c0 -11 11 -15 42 -15 28 0 42 4 42 13 0 9 -15 14 -42 16
-32 1 -42 -2 -42 -14z" />
    <path d="M5224 8451 c5 -7 -1 -11 -16 -12 -58 -3 -85 -2 -97 6 -24 14 -100
-40 -101 -73 0 -7 12 -18 28 -25 15 -6 33 -19 40 -27 12 -13 13 -13 6 0 -6 12
-5 13 7 2 10 -10 14 -40 14 -112 -1 -55 1 -97 4 -95 2 3 9 -2 15 -10 10 -14 7
64 -7 192 -1 13 -14 34 -29 48 -29 27 -44 33 -32 13 5 -9 2 -9 -9 1 -18 15
-23 26 -7 16 6 -3 10 3 10 13 0 25 25 32 125 32 44 0 90 3 103 6 24 7 30 20
10 21 -7 0 -26 4 -42 8 -21 6 -27 5 -22 -4z" />
    <path d="M5571 8453 c-23 -5 -22 -5 10 -25 22 -13 35 -16 37 -9 4 12 22 5 22
-9 0 -5 -18 -7 -40 -5 -41 4 -47 -2 -31 -33 5 -9 12 -25 15 -35 3 -10 10 -15
16 -12 5 3 7 0 4 -9 -3 -8 -11 -13 -18 -10 -7 3 -13 -2 -13 -11 0 -13 7 -16
28 -13 25 4 29 0 44 -41 30 -84 33 -96 39 -149 7 -71 29 -162 38 -162 11 0 10
38 -2 80 -7 26 -6 39 5 56 13 21 11 34 -7 34 -4 0 -9 -8 -9 -17 -1 -10 -5 2
-9 27 -4 25 -10 58 -15 74 -6 21 -5 27 4 22 6 -4 9 -11 6 -16 -6 -10 23 -35
32 -27 3 4 -1 9 -9 12 -10 4 -14 14 -11 26 4 14 0 19 -14 19 -22 0 -53 106
-38 131 5 8 4 10 -3 5 -9 -5 -10 6 -5 39 6 46 6 46 -23 43 -19 -2 -28 1 -26
10 1 6 1 11 0 11 -2 -1 -14 -4 -27 -6z" />
    <path d="M5325 8440 c3 -6 31 -10 62 -10 71 0 64 9 -11 15 -36 3 -55 1 -51 -5z" />
    <path d="M5130 8323 c0 -15 23 -43 35 -43 19 0 19 19 0 26 -8 4 -13 9 -10 13
2 4 -2 8 -10 8 -8 0 -15 -2 -15 -4z" />
    <path d="M5130 8060 c0 -12 -4 -18 -10 -15 -5 3 -10 -3 -10 -14 0 -12 6 -20
12 -18 16 3 23 -42 8 -57 -8 -8 -10 -7 -5 5 4 10 2 20 -4 24 -7 3 -11 -2 -11
-14 0 -11 9 -25 19 -30 24 -13 30 7 23 78 -4 50 -22 83 -22 41z" />
    <path d="M4650 8042 c0 -22 57 -55 64 -37 3 8 2 14 -2 14 -20 -3 -32 2 -32 14
0 8 -7 14 -15 14 -8 0 -15 -2 -15 -5z" />
    <path d="M4752 7986 c4 -5 4 -14 -2 -20 -6 -8 -3 -16 8 -23 24 -15 28 20 4 39
-9 7 -14 8 -10 4z" />
    <path d="M4790 7936 c0 -23 129 -83 140 -66 6 9 4 17 -3 22 -17 11 -29 10 -22
-2 13 -21 -7 -9 -41 25 -35 36 -74 46 -74 21z" />
    <path d="M4686 7933 c-12 -13 -6 -22 12 -16 9 3 14 2 9 -2 -9 -10 21 -45 40
-45 7 0 13 -5 13 -11 0 -6 9 -9 20 -6 13 3 20 0 20 -8 0 -20 17 -28 36 -17 13
7 9 13 -24 30 -22 11 -43 18 -46 15 -3 -4 -6 2 -6 11 0 13 -6 17 -19 13 -13
-3 -18 -1 -14 8 5 14 -30 39 -41 28z" />
    <path d="M5744 7925 c-4 -8 -10 -12 -15 -9 -5 3 -9 -2 -9 -10 0 -9 7 -16 15
-16 8 0 15 -6 15 -14 0 -13 20 -26 40 -26 5 0 11 8 13 18 4 15 5 15 6 0 1 -11
7 -15 22 -11 16 4 17 8 7 14 -10 7 -9 9 5 9 9 0 17 5 17 11 0 6 -8 8 -17 5
-60 -18 -73 -18 -73 -2 0 9 -4 16 -10 16 -5 0 -7 7 -4 15 4 8 3 15 0 15 -4 0
-9 -7 -12 -15z" />
    <path d="M4962 7859 c2 -7 26 -18 53 -27 28 -8 56 -16 64 -18 12 -4 11 -7 -1
-22 -21 -25 -39 -72 -28 -72 6 0 10 7 10 16 0 14 2 15 17 3 15 -13 16 -12 11
9 -4 12 -2 22 4 22 5 0 6 5 2 12 -5 7 -2 9 8 6 11 -5 15 1 16 23 0 18 -4 29
-11 28 -7 -1 -20 1 -31 6 -11 5 -21 3 -26 -5 -5 -8 -9 -9 -14 -1 -4 6 -4 16
-1 21 9 14 -8 12 -24 -2 -11 -10 -13 -10 -7 0 5 8 -1 12 -19 12 -16 0 -25 -5
-23 -11z" />
    <path d="M5132 7811 c0 -29 4 -38 14 -34 10 4 12 -4 9 -30 -4 -32 7 -42 31
-28 7 4 -27 75 -35 74 -6 -2 -6 9 -1 27 7 23 5 30 -5 30 -9 0 -14 -12 -13 -39z" />
    <path d="M4982 7740 c-1 -28 2 -38 11 -35 8 4 13 -5 13 -25 1 -16 -2 -30 -5
-30 -4 0 -7 -15 -7 -32 1 -117 -4 -160 -18 -155 -11 4 -13 -9 -13 -61 0 -40
-5 -68 -12 -70 -7 -2 -9 -18 -4 -44 3 -24 2 -39 -3 -35 -5 3 -9 -20 -10 -51 0
-71 -9 -117 -20 -115 -5 0 -10 -22 -11 -50 -3 -73 -35 -227 -46 -220 -5 3 -6
-14 -2 -40 8 -53 -2 -110 -17 -101 -7 5 -8 2 -3 -5 8 -15 -3 -123 -13 -117 -4
2 -8 -21 -9 -51 -1 -30 -6 -60 -12 -67 -7 -8 -5 -12 8 -12 10 0 18 5 19 11 12
80 35 192 43 204 9 14 10 14 5 -1 -3 -10 -1 -20 3 -23 9 -5 6 66 -4 112 -3 12
3 41 14 65 10 24 21 73 25 111 4 37 11 65 15 62 5 -2 6 7 3 22 -4 20 -2 24 9
18 12 -8 12 -6 0 8 -14 17 -10 21 22 18 9 -1 17 4 17 13 0 9 -5 15 -11 14 -6
-2 -13 4 -14 12 -2 8 -7 24 -11 34 -6 16 -4 18 10 13 10 -4 15 -3 11 4 -10 15
5 110 16 103 5 -3 6 2 3 10 -3 8 0 40 6 72 10 46 10 58 -2 65 -12 8 0 14 23
11 4 -1 5 8 2 18 -3 11 -10 20 -17 20 -6 0 -3 5 7 11 10 6 17 23 18 42 0 18 3
27 5 20 3 -7 12 -9 20 -6 19 7 18 23 -1 23 -8 0 -15 5 -15 11 0 5 5 7 10 4 6
-3 10 -1 10 4 0 6 -5 11 -11 11 -8 0 -8 4 0 14 7 8 12 33 13 55 0 23 4 44 9
47 5 3 7 10 4 15 -3 5 1 6 9 3 11 -4 16 0 16 11 0 11 -5 15 -15 11 -8 -3 -15
-1 -15 4 0 6 -4 10 -9 10 -5 0 -7 -8 -4 -18 2 -10 -2 -24 -10 -30 -11 -10 -13
-3 -9 44 3 41 1 59 -9 65 -26 17 -36 9 -37 -31z" />
    <path d="M5743 7755 c0 -18 5 -25 18 -25 11 0 19 5 19 11 0 6 -7 9 -15 5 -13
-4 -14 -2 -5 14 8 16 8 20 -3 20 -9 0 -14 -10 -14 -25z" />
    <path d="M5820 7738 c0 -73 11 -117 26 -111 11 4 12 9 3 19 -6 8 -7 14 -2 14
13 0 15 53 2 61 -6 4 -11 18 -11 33 0 14 -4 26 -9 26 -5 0 -9 -19 -9 -42z" />
    <path d="M5791 7667 c-1 -10 -5 -15 -11 -12 -5 3 -10 -1 -10 -10 0 -9 4 -14 9
-11 5 4 7 -12 4 -36 -4 -29 -3 -39 5 -34 7 4 14 -4 18 -21 3 -15 8 -34 10 -42
3 -8 -1 -11 -11 -7 -13 4 -14 2 -5 -15 6 -11 15 -17 20 -14 6 4 7 -2 3 -11 -4
-11 -8 -13 -11 -6 -6 20 -22 14 -22 -9 0 -11 4 -17 10 -14 6 3 7 -1 4 -9 -3
-9 -1 -16 5 -16 5 0 16 -19 22 -42 17 -58 27 -68 22 -21 -2 21 -6 56 -8 78 -4
40 -4 40 6 5 6 -19 13 -54 16 -77 3 -24 9 -43 14 -43 12 0 11 87 -1 95 -5 3
-10 18 -10 32 0 15 -6 34 -14 42 -18 22 -36 77 -42 128 -5 48 -22 100 -23 70z" />
    <path d="M5844 7556 c3 -23 5 -49 5 -59 1 -15 4 -15 21 -5 11 7 20 22 19 33 0
20 0 20 -9 0 -8 -19 -16 22 -11 61 1 6 -6 11 -15 11 -12 0 -14 -8 -10 -41z" />
    <path d="M5909 7323 c-1 -5 -3 -17 -4 -28 -1 -11 -3 -26 -3 -33 -1 -7 -6 -11
-10 -8 -4 2 -8 -4 -8 -15 0 -10 6 -19 13 -19 7 0 10 7 7 15 -4 8 -2 15 3 15 5
0 10 18 11 40 2 33 -5 58 -9 33z" />
    <path d="M5854 7229 c4 -48 2 -58 -7 -50 -10 8 -13 1 -14 -27 -1 -20 0 -31 3
-24 10 21 27 13 22 -11 -3 -16 0 -24 9 -24 10 0 12 8 7 31 -4 17 -7 61 -6 99
0 37 -4 67 -9 67 -5 0 -7 -27 -5 -61z" />
    <path d="M5908 7023 c3 -78 2 -103 -8 -103 -8 0 -11 -13 -8 -39 2 -22 0 -37
-4 -35 -12 8 -19 -33 -9 -59 5 -14 7 -28 4 -31 -4 -3 -1 -6 6 -6 8 0 10 8 6
23 -6 17 -5 19 5 10 7 -6 11 -28 8 -51 -2 -22 0 -38 4 -36 4 3 8 -30 10 -73 3
-66 6 -78 22 -81 16 -3 18 2 14 50 -3 39 0 57 12 66 8 8 10 11 3 8 -14 -8 -23
103 -9 122 6 9 5 17 -4 25 -10 10 -11 9 -5 -2 6 -10 4 -12 -4 -7 -8 5 -10 22
-5 53 5 33 4 44 -5 39 -8 -5 -11 12 -11 58 0 36 4 67 9 70 5 4 7 -2 4 -13 -3
-10 0 -22 6 -25 7 -5 11 2 10 16 0 24 -17 71 -18 53 -1 -5 -5 -4 -10 4 -5 8
-8 27 -6 41 2 16 -2 27 -9 27 -10 0 -11 -26 -8 -104z" />
    <path d="M5868 7056 c-3 -14 -1 -23 3 -20 5 3 9 -17 9 -45 0 -27 5 -53 11 -57
9 -5 11 11 7 60 -6 73 -22 105 -30 62z" />
    <path d="M5930 6495 c0 -34 12 -46 25 -24 9 14 -3 59 -15 59 -6 0 -10 -16 -10
-35z" />
    <path d="M5902 6498 c-16 -16 -15 -38 1 -38 7 0 14 11 15 25 2 28 1 30 -16 13z" />
  </g>
  <g transform="translate(0.000000,1635.000000) scale(0.100000,-0.100000)" fill="#201f20" stroke="none">
    <path d="M5311 10307 c-9 -11 -5 -14 17 -15 19 0 29 5 29 14 0 18 -31 18 -46
1z" />
    <path d="M5373 10273 c-12 -2 -27 -11 -35 -20 -12 -15 -9 -16 21 -10 18 4 49
7 67 7 24 0 34 5 34 15 0 15 -35 18 -87 8z" />
    <path d="M5780 10167 c-45 -12 -45 -12 0 -15 25 -2 50 -8 55 -13 7 -7 4 -8 -6
-4 -10 4 -20 2 -23 -3 -3 -5 7 -7 22 -5 15 2 37 4 50 4 27 -1 29 15 2 24 -11
4 -18 11 -15 16 4 5 2 9 -4 9 -5 0 -13 -4 -16 -10 -3 -5 -12 -10 -18 -10 -7 0
-6 4 3 10 18 12 8 11 -50 -3z" />
    <path d="M5582 9959 c-7 -10 -8 -19 -3 -19 5 0 12 6 14 13 4 9 6 9 6 0 1 -14
60 -47 69 -39 3 3 0 6 -7 6 -8 0 -11 7 -7 15 3 8 1 15 -4 15 -6 0 -10 -6 -10
-12 0 -7 -10 -1 -23 14 -22 26 -24 26 -35 7z" />
    <path d="M5265 9930 c-14 -14 -25 -30 -25 -35 0 -6 11 3 25 18 26 27 55 36 55
17 0 -5 12 -10 28 -9 27 1 27 1 -1 11 -15 5 -25 13 -23 17 12 19 -38 3 -59
-19z" />
    <path d="M4848 9909 c-4 -9 -1 -25 7 -35 7 -11 13 -21 12 -24 0 -3 3 -15 7
-28 10 -29 -20 -75 -75 -117 -39 -29 -52 -52 -23 -41 23 9 37 -3 23 -20 -10
-12 -9 -13 5 -8 19 7 20 16 4 32 -9 9 -9 12 -1 12 7 0 14 -4 18 -10 3 -5 12
-7 20 -4 8 4 13 10 10 15 -3 4 -12 6 -19 3 -8 -3 -17 1 -22 8 -4 7 -4 10 1 6
4 -4 17 -1 27 7 11 7 28 11 37 8 14 -4 14 -3 -1 7 -37 23 11 82 80 98 66 15
75 15 66 0 -5 -8 -2 -9 12 -3 10 4 33 12 49 18 17 5 40 14 52 20 15 6 36 6 67
-2 53 -13 59 -13 52 -3 -2 4 11 6 31 4 25 -3 34 -1 29 7 -5 7 3 11 24 11 18 0
29 -4 25 -10 -3 -5 -1 -10 5 -10 7 0 10 6 8 13 -6 16 -82 21 -134 8 -29 -8
-50 -8 -66 -1 -22 10 -22 10 -1 6 13 -2 29 4 39 15 24 27 15 25 -52 -9 -12 -6
-48 -16 -80 -21 -33 -6 -77 -18 -99 -26 -22 -8 -46 -14 -52 -15 -22 0 -14 17
10 25 14 4 17 8 9 12 -7 3 -18 0 -25 -6 -21 -17 -61 10 -67 44 -4 22 -7 26
-12 14z" />
    <path d="M5625 9861 c-6 -11 6 -15 39 -11 11 1 16 -3 11 -10 -5 -8 4 -10 32
-6 28 5 33 4 18 -3 -22 -11 -16 -13 33 -15 46 -2 40 10 -15 27 -74 24 -110 29
-118 18z" />
    <path d="M5816 9862 c-5 -8 22 -49 29 -44 11 6 23 1 45 -20 13 -12 30 -23 38
-25 23 -3 34 -27 15 -32 -9 -1 -20 4 -25 13 -5 9 -16 16 -23 16 -8 0 -24 9
-35 20 -20 20 -100 27 -100 9 0 -15 104 -59 111 -47 4 7 12 7 24 1 11 -7 14
-13 7 -17 -16 -10 -3 -36 17 -36 9 0 22 5 29 12 11 11 17 1 13 -24 0 -4 6 -5
14 -2 14 6 19 -5 16 -31 -1 -5 7 0 18 13 23 26 36 29 27 5 -4 -10 2 -25 15
-40 13 -12 17 -23 11 -23 -17 0 -15 -17 2 -23 11 -4 13 -1 9 10 -4 11 -2 14 8
11 8 -3 13 -12 11 -21 -2 -11 2 -15 12 -11 15 6 45 -20 82 -72 46 -64 94 -108
107 -95 7 7 8 11 2 10 -19 -4 -45 13 -45 30 0 10 -11 28 -25 41 -30 28 -32 44
-5 35 14 -5 20 -2 20 9 0 9 -4 16 -9 16 -5 0 -14 13 -21 30 -10 25 -16 29 -38
23 -18 -4 -23 -3 -18 6 5 7 2 10 -6 9 -7 -2 -12 5 -12 15 2 18 -11 23 -21 7
-3 -5 5 -21 19 -35 25 -25 22 -31 -8 -19 -9 3 -16 12 -16 20 0 8 -7 14 -15 14
-8 0 -15 5 -15 10 0 6 6 10 13 10 6 0 -6 15 -27 33 -22 19 -37 38 -33 44 3 5
-4 9 -16 9 -15 -1 -23 6 -25 21 -2 14 -8 20 -17 17 -10 -4 -13 0 -10 15 4 22
-10 29 -18 9 -2 -9 -20 -2 -55 22 -28 19 -48 38 -46 42 3 4 -3 5 -12 1 -12 -4
-15 -3 -10 5 4 7 5 12 2 12 -3 0 -7 -3 -10 -8z" />
    <path d="M4945 9770 c-5 -9 18 -20 41 -20 8 0 14 4 14 9 0 11 -49 21 -55 11z" />
    <path d="M6050 9711 c0 -6 9 -15 21 -21 18 -10 20 -9 17 7 -3 19 -38 32 -38
14z" />
    <path d="M6193 9439 c2 -13 40 -59 45 -55 5 5 -33 66 -40 66 -5 0 -7 -5 -5
-11z" />
    <path d="M6283 9347 c0 -17 -4 -42 -8 -54 -5 -15 -3 -23 4 -23 6 0 11 11 11
25 0 35 17 31 25 -5 7 -31 19 -38 30 -19 4 5 -1 19 -10 29 -11 12 -15 28 -12
41 3 11 3 18 0 15 -4 -3 -14 1 -23 9 -15 14 -17 12 -17 -18z" />
    <path d="M6335 9250 c-4 -6 -2 -16 3 -23 5 -7 12 -29 16 -49 4 -21 11 -38 16
-38 6 0 10 -14 10 -32 0 -38 20 -98 33 -98 5 0 6 -11 3 -24 -3 -13 -1 -26 4
-28 6 -2 15 -32 20 -68 6 -36 13 -85 17 -109 5 -38 4 -43 -10 -38 -8 3 -18 0
-21 -8 -3 -10 0 -12 11 -8 12 5 14 3 8 -8 -8 -12 -6 -12 8 0 17 14 22 8 18
-25 -1 -6 5 -16 12 -22 10 -9 13 -4 15 19 2 19 -2 28 -8 24 -9 -6 -15 27 -11
68 1 9 -3 17 -8 17 -6 0 -11 20 -11 45 0 58 -46 276 -61 285 -6 4 -9 13 -8 21
2 14 -38 109 -46 109 -2 0 -7 -5 -10 -10z" />
    <path d="M4344 9013 c3 -6 1 -13 -6 -15 -15 -5 -27 -109 -16 -139 5 -13 5 -25
0 -28 -5 -3 -9 -19 -9 -36 0 -16 -4 -41 -8 -54 -6 -17 -5 -22 3 -17 6 4 22 2
34 -5 23 -11 23 -11 0 11 -13 12 -21 29 -18 37 3 8 6 19 6 24 0 16 18 10 24
-8 3 -10 3 0 0 22 -7 53 -7 101 2 153 4 30 2 47 -6 55 -10 9 -11 9 -6 0z" />
    <path d="M4386 8514 c-3 -9 -1 -23 4 -32 9 -14 10 -12 4 7 -5 20 -3 23 14 19
11 -3 26 -1 33 4 11 8 11 9 -1 5 -8 -2 -22 0 -32 4 -11 6 -18 4 -22 -7z" />
    <path d="M4400 8451 c0 -5 -3 -18 -6 -28 -5 -15 -4 -15 5 -3 8 12 12 9 17 -18
4 -18 11 -35 15 -38 5 -3 9 -16 9 -30 0 -13 5 -24 11 -24 5 0 7 -5 3 -12 -4
-7 -3 -8 4 -4 12 7 16 -5 13 -33 -2 -8 2 -10 10 -5 8 5 10 3 4 -5 -10 -18 36
-116 47 -99 6 10 10 10 18 -2 8 -13 10 -12 10 3 0 24 14 21 34 -5 15 -22 15
-22 4 7 -16 40 -15 40 -34 24 -17 -14 -23 -9 -27 18 0 5 -7 14 -15 22 -7 8
-11 22 -9 32 3 10 2 18 -2 17 -19 -2 -22 4 -10 19 8 9 9 14 4 11 -21 -13 -37
10 -40 55 -5 74 -14 93 -31 70 -12 -17 -13 -16 -14 10 0 15 -4 27 -10 27 -5 0
-10 -4 -10 -9z" />
    <path d="M5244 8441 c4 -5 -4 -7 -16 -3 -14 3 -19 2 -14 -6 10 -17 53 -15 60
3 4 10 -1 15 -15 15 -11 0 -18 -4 -15 -9z" />
    <path d="M5579 8431 c10 -7 11 -13 2 -27 -6 -11 -11 -13 -11 -6 0 6 -8 12 -17
12 -15 0 -15 -2 2 -14 10 -7 27 -11 38 -8 17 4 19 2 13 -23 -5 -18 -3 -31 5
-36 33 -20 -1 -40 -56 -34 -39 5 -55 4 -55 -4 0 -7 -4 -10 -9 -6 -19 11 -102
15 -96 4 5 -6 -15 -9 -59 -6 -36 2 -66 0 -66 -5 0 -11 -27 -10 -32 1 -1 4 -20
11 -41 15 -27 5 -37 4 -32 -4 3 -5 11 -8 16 -5 5 4 9 1 9 -4 0 -6 -6 -11 -12
-11 -7 0 -4 -6 6 -12 12 -7 43 -8 85 -4 224 23 341 16 341 -21 0 -19 18 -16
23 5 3 9 3 -2 0 -25 -5 -36 -3 -43 11 -43 27 0 31 29 11 79 -10 25 -20 71 -22
101 -4 54 -27 90 -57 90 -6 0 -6 -4 3 -9z" />
    <path d="M6393 8355 c-3 -9 -3 -19 1 -22 7 -7 36 16 36 28 0 15 -30 10 -37 -6z" />
    <path d="M5123 8185 c0 -38 2 -53 4 -32 2 20 2 52 0 70 -2 17 -4 1 -4 -38z" />
    <path d="M5670 8136 c0 -19 -3 -41 -6 -50 -4 -11 -1 -16 10 -16 16 0 22 -32
17 -87 -1 -13 3 -23 9 -23 5 0 10 -13 10 -29 0 -17 5 -33 11 -37 8 -4 7 -9 -2
-15 -11 -7 -10 -9 4 -9 9 0 17 5 17 10 0 6 5 10 11 10 6 0 9 -6 6 -14 -3 -8 1
-17 9 -20 25 -10 54 -7 54 5 0 5 -4 7 -10 4 -5 -3 -10 -1 -10 4 0 6 -7 11 -15
11 -8 0 -15 6 -15 14 0 9 -7 13 -19 11 -15 -3 -21 6 -30 48 -7 29 -16 70 -21
92 -5 22 -9 59 -10 83 0 23 -4 42 -10 42 -5 0 -10 -15 -10 -34z" />
    <path d="M4570 8137 c0 -10 61 -77 72 -77 4 0 8 5 8 10 0 6 -6 9 -12 8 -7 -2
-12 3 -10 10 1 6 -3 12 -9 12 -6 0 -19 10 -30 23 -10 12 -18 19 -19 14z" />
    <path d="M6216 8085 c-15 -14 -23 -31 -20 -37 4 -6 3 -8 -3 -5 -6 4 -16 0 -23
-8 -7 -8 -16 -12 -21 -9 -5 3 -6 -2 -3 -10 3 -9 2 -16 -2 -16 -5 0 -24 -14
-42 -30 -19 -16 -42 -32 -53 -35 -10 -4 -19 -11 -19 -17 0 -5 8 -7 17 -4 15 6
14 4 -2 -14 -15 -16 -16 -23 -6 -33 10 -9 11 -9 6 3 -7 19 50 64 70 56 8 -3
17 -1 20 4 4 6 1 10 -6 10 -7 0 -4 6 7 14 10 8 16 18 11 22 -4 4 -7 2 -7 -4 0
-7 -7 -12 -16 -12 -14 0 -14 3 -4 15 7 8 20 15 29 15 25 0 75 55 65 72 -4 7
-4 10 1 6 5 -5 15 1 23 13 21 31 8 34 -22 4z" />
    <path d="M4554 8081 c0 -11 4 -17 8 -15 7 5 10 -4 7 -22 0 -4 5 -10 13 -15 7
-4 13 -16 13 -26 0 -10 7 -18 15 -18 23 -1 41 -15 34 -27 -5 -7 -2 -8 6 -3 10
6 8 13 -11 29 -13 12 -37 42 -52 69 -32 53 -33 54 -33 28z" />
    <path d="M4655 8050 c-8 -13 12 -40 31 -40 20 0 17 14 -5 34 -13 12 -21 14
-26 6z" />
    <path d="M4717 7974 c13 -13 28 -22 33 -19 4 3 16 2 25 -1 12 -5 13 -9 5 -14
-8 -5 -1 -13 19 -23 17 -8 33 -12 36 -7 3 4 -5 10 -16 13 -12 3 -18 10 -15 15
8 13 -40 36 -56 26 -10 -6 -10 -5 1 9 7 9 10 17 5 18 -5 0 -21 2 -35 4 -26 3
-26 3 -2 -21z" />
    <path d="M5144 7949 c-4 -26 -10 -36 -15 -28 -4 7 -6 16 -3 20 2 4 0 10 -6 14
-6 4 -10 -5 -10 -19 0 -19 38 -60 40 -44 4 24 7 98 4 98 -2 0 -7 -18 -10 -41z" />
    <path d="M5965 7899 c-31 -15 -34 -19 -15 -16 14 1 36 10 50 20 32 22 16 20
-35 -4z" />
    <path d="M5976 7865 c-17 -13 -18 -15 -3 -15 9 0 17 -5 17 -11 0 -5 5 -7 11
-3 8 5 8 9 -1 14 -9 6 -7 11 6 19 14 8 15 10 4 10 -8 0 -24 -6 -34 -14z" />
    <path d="M5130 7845 c0 -8 -5 -15 -11 -15 -6 0 -8 -8 -5 -17 5 -15 3 -15 -11
2 -17 19 -73 29 -73 13 0 -4 11 -8 23 -8 33 0 40 -10 20 -32 -9 -10 -13 -21
-10 -25 4 -3 7 -1 7 7 0 10 3 10 15 0 10 -9 15 -9 15 -1 0 6 -5 11 -12 11 -17
0 -3 11 19 15 10 1 17 8 16 13 -2 7 4 9 14 5 12 -5 15 -2 10 10 -3 8 -1 17 6
20 6 2 4 6 -6 10 -11 4 -17 1 -17 -8z" />
    <path d="M5888 7832 c-56 -26 -75 -51 -55 -71 7 -7 7 -11 1 -11 -6 0 -11 -19
-11 -42 -1 -43 -1 -43 9 -8 6 19 11 47 12 63 1 21 6 27 24 27 12 0 21 5 20 11
-2 6 3 14 11 17 9 3 11 0 6 -8 -6 -9 -1 -10 16 -5 37 11 50 29 16 21 -19 -4
-26 -3 -22 4 3 5 13 10 21 10 8 0 14 5 14 10 0 6 -1 10 -2 9 -2 -1 -29 -13
-60 -27z" />
    <path d="M4837 7838 c12 -6 23 -19 26 -29 5 -20 32 -26 41 -10 6 8 -66 52 -82
50 -4 0 3 -5 15 -11z" />
    <path d="M5690 7779 c0 -5 -6 -7 -12 -4 -7 4 -4 -1 6 -9 24 -19 34 -19 66 -1
25 15 25 15 0 12 -14 -1 -31 -6 -37 -10 -9 -6 -11 -3 -7 7 3 9 1 16 -5 16 -6
0 -11 -5 -11 -11z" />
    <path d="M4980 7769 c0 -5 4 -8 8 -5 17 10 29 -11 34 -61 3 -35 1 -53 -6 -53
-7 0 -12 -30 -13 -81 -1 -54 2 -78 9 -71 5 5 8 18 6 28 -2 11 2 24 9 29 19 14
18 183 -1 214 -9 14 -46 15 -46 0z" />
    <path d="M5290 7741 c-25 -7 -25 -7 0 -14 34 -9 42 -9 36 2 -4 5 0 12 6 14 20
8 -13 6 -42 -2z" />
    <path d="M5832 7630 c1 -47 16 -92 16 -50 0 19 -3 44 -8 55 -8 18 -9 18 -8 -5z" />
    <path d="M5811 7553 c-1 -6 4 -24 10 -40 6 -15 11 -48 10 -72 -2 -55 6 -81 25
-81 8 0 14 -9 14 -21 0 -13 -5 -19 -13 -16 -10 4 -11 -5 -3 -43 17 -86 41 -39
26 53 -6 39 -14 102 -17 140 -4 59 -22 97 -23 50 -1 -12 -6 -7 -15 12 -7 17
-14 25 -14 18z" />
    <path d="M4992 7444 c-8 -9 -15 -47 -18 -92 -4 -77 -4 -77 16 -2 23 85 23 117
2 94z" />
    <path d="M5891 7128 c4 -46 -3 -65 -12 -33 -7 26 -8 24 -3 -10 2 -22 11 -103
19 -179 8 -77 18 -142 23 -145 4 -3 9 -51 10 -106 3 -118 11 -187 22 -180 13
8 -5 351 -19 359 -12 8 -12 177 0 193 10 11 9 14 -2 11 -9 -2 -17 -22 -21 -53
-4 -29 -5 -5 -3 58 2 66 0 107 -6 107 -5 0 -9 -10 -8 -22z" />
    <path d="M4776 6413 c-9 -21 16 -37 27 -17 9 15 2 34 -13 34 -4 0 -11 -8 -14
-17z" />
  </g>
  <g transform="translate(0.000000,1635.000000) scale(0.100000,-0.100000)" fill="#171717" stroke="none">
    <path d="M5375 10322 c-13 -13 -1 -17 50 -18 63 -1 86 -14 65 -39 -7 -8 -9
-15 -5 -15 4 0 1 -7 -6 -17 -13 -15 -12 -15 8 -5 47 26 31 75 -31 90 -42 11
-72 12 -81 4z" />
    <path d="M5324 10304 c3 -8 2 -12 -4 -9 -6 3 -10 3 -10 -2 0 -4 -13 -14 -29
-21 -37 -16 -75 -84 -58 -102 7 -7 8 -10 2 -8 -6 4 -10 -22 -11 -68 0 -47 3
-71 9 -67 6 4 8 0 4 -10 -3 -10 -3 -17 2 -17 5 0 9 36 10 81 2 111 33 174 101
206 14 6 19 12 12 12 -7 1 -10 6 -7 11 3 6 -1 10 -10 10 -11 0 -15 -5 -11 -16z" />
    <path d="M5720 10206 c-6 -8 -18 -12 -25 -10 -17 7 -65 -24 -65 -42 0 -8 -9
-19 -20 -26 -11 -7 -20 -21 -20 -30 0 -9 -6 -21 -14 -25 -17 -10 -30 -69 -17
-77 11 -7 23 22 14 36 -3 7 -1 8 5 4 7 -4 12 -2 12 4 0 32 68 112 117 137 29
16 53 31 53 36 0 12 -27 8 -40 -7z" />
    <path d="M5783 10213 c-24 -9 -13 -19 21 -19 22 1 32 5 29 14 -5 12 -27 15
-50 5z" />
    <path d="M5846 10206 c3 -8 16 -17 30 -20 23 -6 33 -26 37 -74 1 -17 4 -19 13
-10 20 21 22 74 2 62 -8 -5 -9 -2 -5 9 5 12 1 17 -13 17 -11 0 -20 5 -20 11 0
5 -4 8 -9 4 -5 -3 -12 -1 -16 5 -9 15 -25 12 -19 -4z" />
    <path d="M4955 10191 c-25 -12 -24 -12 52 -13 49 -1 60 -4 56 -16 -3 -8 0 -18
7 -22 15 -10 -9 -40 -32 -40 -10 0 -10 -2 1 -9 34 -22 68 62 36 89 -19 16 -94
22 -120 11z" />
    <path d="M4900 10165 c0 -8 -5 -15 -10 -15 -6 0 -19 -15 -30 -32 -11 -18 -20
-28 -20 -23 -1 23 -40 -71 -40 -96 0 -38 18 -46 25 -12 11 50 48 117 82 147
32 29 35 46 7 46 -8 0 -14 -7 -14 -15z" />
    <path d="M5290 10118 c0 -14 -3 -33 -6 -42 -3 -9 -2 -16 4 -16 13 0 21 56 10
72 -5 9 -8 4 -8 -14z" />
    <path d="M5740 10119 c-14 -11 -18 -18 -10 -17 8 2 20 10 27 18 7 8 13 11 13
5 0 -5 12 -11 26 -12 28 -1 21 11 -11 21 -12 3 -30 -2 -45 -15z" />
    <path d="M5297 10033 c-7 -13 7 -48 21 -50 14 -3 16 13 2 22 -6 4 -8 10 -5 15
3 5 1 11 -4 14 -5 4 -11 3 -14 -1z" />
    <path d="M4892 10018 c-14 -17 -19 -77 -7 -79 9 -1 29 81 21 88 -2 2 -8 -2
-14 -9z" />
    <path d="M5539 9975 c-3 -2 -31 -5 -62 -6 -31 -1 -57 -6 -57 -12 0 -5 25 -8
60 -5 56 4 80 12 68 23 -2 3 -7 3 -9 0z" />
    <path d="M4804 9893 c5 -40 19 -68 34 -71 15 -3 6 38 -10 49 -5 3 -10 16 -11
27 -1 12 -5 22 -9 22 -4 0 -6 -12 -4 -27z" />
    <path d="M5074 9908 c-3 -4 -17 -8 -31 -8 -19 0 -24 -4 -19 -16 3 -8 2 -12 -4
-9 -5 3 -28 0 -51 -6 -34 -11 -42 -10 -50 2 -5 8 -9 10 -9 4 0 -34 85 -35 145
-2 11 6 23 10 27 9 4 -1 12 6 17 16 10 19 -14 29 -25 10z" />
    <path d="M5001 9778 c-6 -10 -9 -18 -7 -18 7 0 71 29 66 30 -29 8 -49 3 -59
-12z" />
    <path d="M4810 9770 c0 -6 -11 -15 -25 -20 -14 -5 -25 -14 -25 -20 0 -5 -8
-10 -17 -10 -10 0 -27 -13 -37 -28 -11 -16 -32 -37 -47 -48 -15 -10 -26 -20
-24 -22 2 -2 -4 -11 -13 -21 -9 -9 -37 -42 -62 -71 -25 -30 -57 -66 -72 -82
-16 -15 -28 -32 -28 -38 0 -5 -4 -10 -10 -10 -5 0 -10 -10 -10 -21 0 -12 -12
-43 -28 -68 -35 -58 -47 -85 -63 -141 -7 -25 -13 -47 -14 -50 -1 -3 -7 -18
-13 -33 -19 -45 -34 -113 -30 -133 2 -10 20 36 42 101 41 128 113 295 127 295
5 0 9 4 9 10 0 10 40 75 62 100 7 9 38 45 70 80 31 36 56 68 57 73 1 4 3 7 6
7 6 0 62 48 112 96 18 17 34 30 35 29 2 -1 12 6 22 16 19 19 19 19 -2 19 -12
0 -22 -5 -22 -10z" />
    <path d="M6030 9735 c0 -16 39 -42 44 -29 3 7 -3 18 -14 24 -21 11 -30 13 -30
5z" />
    <path d="M6080 9694 c0 -7 48 -54 56 -54 9 0 -2 24 -18 42 -18 18 -38 24 -38
12z" />
    <path d="M4721 9596 c-43 -32 -72 -76 -51 -76 6 0 10 9 10 21 0 13 4 18 12 13
7 -4 8 -3 4 5 -5 8 0 10 18 7 14 -3 25 -1 23 4 -1 5 12 21 28 34 46 39 7 31
-44 -8z" />
    <path d="M6177 9582 c13 -32 73 -89 68 -63 -5 29 -23 51 -38 48 -7 -1 -11 5
-11 14 1 9 -4 16 -11 16 -7 0 -11 -7 -8 -15z" />
    <path d="M6080 9570 c0 -13 7 -20 20 -20 11 0 19 -3 18 -7 -5 -14 30 -55 37
-44 3 6 1 11 -5 11 -6 0 -9 4 -5 9 3 5 -6 18 -20 29 -14 11 -25 25 -25 31 0 6
-4 11 -10 11 -5 0 -10 -9 -10 -20z" />
    <path d="M6258 9495 c-4 -4 2 -19 12 -33 11 -13 20 -31 20 -38 0 -8 4 -14 9
-14 5 0 7 12 5 27 -6 34 -13 45 -24 38 -5 -3 -10 2 -12 11 -2 9 -6 13 -10 9z" />
    <path d="M4576 9444 c-23 -27 -26 -38 -17 -47 10 -9 11 -8 6 6 -6 13 -2 17 14
17 12 0 21 6 21 14 0 8 7 16 15 20 8 3 15 10 15 16 0 20 -26 8 -54 -26z" />
    <path d="M6206 9415 c-3 -9 1 -18 9 -21 8 -4 13 -10 10 -14 -3 -5 5 -25 17
-46 12 -21 24 -32 26 -24 3 7 -1 16 -8 20 -7 4 -9 13 -6 19 4 6 3 11 -3 11 -5
0 -12 13 -16 30 -8 35 -21 46 -29 25z" />
    <path d="M6317 9404 c-11 -11 -8 -26 4 -18 7 4 9 -2 7 -16 -2 -13 3 -25 11
-28 10 -3 11 2 6 19 -11 36 -20 50 -28 43z" />
    <path d="M4486 9302 c-10 -20 -25 -50 -33 -65 -8 -16 -12 -31 -9 -34 3 -3 -1
-12 -9 -20 -8 -8 -15 -23 -15 -34 0 -10 -6 -19 -12 -19 -9 0 -8 -4 2 -10 11
-7 11 -10 2 -10 -7 0 -12 -6 -10 -12 1 -7 -3 -23 -10 -36 -9 -15 -10 -28 -3
-40 8 -14 10 -15 14 -2 3 8 17 51 32 95 15 44 28 90 28 103 1 12 5 22 9 22 13
0 47 76 39 88 -4 7 -14 -3 -25 -26z" />
    <path d="M6305 9213 c4 -10 8 -24 8 -30 0 -14 27 -18 27 -4 0 5 -7 14 -15 21
-8 7 -12 16 -9 21 3 5 0 9 -6 9 -8 0 -9 -7 -5 -17z" />
    <path d="M6430 9160 c-7 -15 -6 -49 1 -45 4 3 10 -8 14 -25 4 -16 10 -32 15
-35 8 -5 3 17 -20 85 -5 14 -9 23 -10 20z" />
    <path d="M6345 9077 c4 -13 7 -31 9 -40 3 -24 13 -30 19 -12 4 8 3 15 -2 15
-4 0 -8 7 -9 15 -1 8 -3 22 -4 30 -1 8 -5 15 -10 15 -5 0 -6 -10 -3 -23z" />
    <path d="M6465 9000 c3 -5 0 -10 -7 -10 -11 0 -11 -2 0 -9 7 -4 12 -14 10 -21
-2 -7 3 -15 11 -18 11 -3 12 0 6 14 -4 11 -7 27 -7 37 0 9 -4 17 -9 17 -6 0
-7 -4 -4 -10z" />
    <path d="M4370 8899 c0 -17 4 -28 10 -24 6 3 10 17 10 31 0 13 -4 24 -10 24
-5 0 -10 -14 -10 -31z" />
    <path d="M4565 8890 c1 -11 4 -22 7 -25 12 -12 -5 -45 -23 -45 -25 0 -34 25
-21 56 11 22 9 24 -13 24 -14 0 -24 -3 -24 -7 1 -5 0 -10 -1 -13 -6 -14 -5
-70 2 -70 4 0 8 8 8 17 0 9 3 13 7 9 4 -4 8 -15 8 -24 0 -13 9 -17 40 -17 42
0 62 65 32 103 -14 18 -24 15 -22 -8z" />
    <path d="M6384 8866 c3 -12 6 -46 6 -75 0 -34 4 -51 9 -45 12 11 16 83 6 106
-4 9 -4 21 -1 26 3 5 -2 9 -10 9 -11 0 -14 -7 -10 -21z" />
    <path d="M6113 8865 c-18 -13 -27 -59 -12 -68 39 -22 51 -27 64 -27 9 0 14 4
11 9 -3 4 1 17 9 27 15 19 15 19 8 0 -4 -13 -3 -17 5 -12 18 11 15 19 -16 54
-33 36 -39 38 -69 17z m65 -38 c4 -20 -21 -32 -45 -21 -10 4 -21 6 -26 6 -4
-1 -2 7 5 18 16 25 61 23 66 -3z" />
    <path d="M6485 8660 c-3 -5 -12 -7 -20 -3 -8 3 -15 1 -15 -5 0 -6 4 -12 9 -14
6 -2 5 -24 0 -57 -6 -29 -9 -55 -7 -56 11 -12 28 17 32 55 3 25 7 55 10 68 5
23 1 29 -9 12z" />
    <path d="M6377 8568 c-6 -18 -10 -37 -9 -41 3 -10 -28 -105 -45 -137 -7 -14
-13 -35 -13 -47 0 -13 -9 -32 -20 -43 -12 -12 -18 -25 -15 -29 2 -5 -2 -11
-10 -14 -7 -3 -17 -22 -21 -41 -3 -20 -10 -36 -16 -36 -5 0 -7 -4 -4 -8 3 -5
-6 -16 -19 -26 -14 -10 -22 -22 -19 -27 3 -5 0 -9 -5 -9 -6 0 -11 -7 -11 -15
0 -9 -7 -18 -15 -21 -8 -3 -24 -21 -36 -40 -11 -19 -25 -32 -29 -29 -5 3 -15
-3 -22 -13 -7 -11 -17 -20 -23 -21 -26 -4 -45 -13 -45 -22 0 -6 -5 -7 -10 -4
-6 4 -16 2 -23 -3 -10 -8 -87 -34 -109 -36 -3 -1 -10 -4 -14 -8 -4 -5 -20 -8
-36 -8 -15 0 -28 -5 -28 -10 0 -6 11 -8 28 -3 15 4 37 7 49 7 12 0 19 4 16 9
-3 5 0 7 8 5 8 -3 25 -1 39 4 14 6 33 11 44 14 10 2 25 9 33 16 8 7 22 13 30
14 21 3 93 53 93 64 0 6 7 10 15 10 8 0 15 6 15 14 0 8 7 17 16 20 8 3 13 10
10 15 -3 5 0 11 8 14 8 3 31 32 52 64 21 32 42 64 48 72 9 12 8 13 -4 7 -13
-7 -13 -6 0 6 21 19 50 76 50 98 0 10 4 21 9 24 4 3 16 34 25 68 9 35 22 73
29 86 8 18 8 25 -1 31 -9 6 -7 14 8 34 18 23 19 27 5 27 -9 0 -21 -14 -28 -32z" />
    <path d="M6440 8471 c-6 -12 -8 -26 -5 -31 3 -6 1 -10 -4 -10 -6 0 -11 -6 -11
-12 0 -7 -7 -26 -15 -42 -14 -26 -14 -28 3 -22 15 5 15 4 -2 -8 -10 -9 -15
-20 -11 -27 12 -18 35 31 28 59 -3 13 -1 22 7 22 6 0 8 5 5 10 -3 6 -2 10 4
10 10 0 26 58 18 67 -3 2 -10 -5 -17 -16z" />
    <path d="M5490 8471 c0 -5 14 -9 30 -9 17 1 30 5 30 10 0 4 -13 8 -30 8 -16 0
-30 -4 -30 -9z" />
    <path d="M5600 8450 c14 -11 28 -20 33 -20 4 0 7 -11 7 -25 0 -26 14 -33 25
-15 4 6 1 17 -5 25 -7 8 -9 15 -5 15 4 0 -4 9 -18 20 -14 11 -33 20 -44 20
-15 0 -14 -3 7 -20z" />
    <path d="M5236 8449 c5 -8 -1 -10 -20 -7 -14 3 -26 1 -26 -5 0 -6 16 -7 43 -2
23 4 70 7 105 7 34 0 65 4 68 9 3 5 -36 9 -86 9 -66 0 -89 -3 -84 -11z" />
    <path d="M5103 8443 c7 -12 64 -15 71 -5 3 4 -13 9 -35 11 -23 1 -38 -2 -36
-6z" />
    <path d="M4483 8370 c0 -22 4 -40 9 -40 4 0 8 -9 8 -20 0 -11 4 -20 9 -20 5 0
8 -6 7 -12 0 -7 4 -14 9 -15 11 -2 9 38 -3 47 -4 3 -8 12 -8 20 0 18 -21 80
-27 80 -3 0 -4 -18 -4 -40z" />
    <path d="M5655 8370 c-3 -5 -1 -19 5 -30 6 -11 8 -20 4 -20 -3 0 -1 -6 5 -13
6 -8 8 -17 4 -20 -3 -4 -2 -7 4 -7 7 0 10 -15 8 -36 -3 -24 0 -34 8 -31 13 4
10 66 -4 83 -5 6 -6 14 -2 17 3 4 -2 15 -11 26 -13 14 -14 20 -5 23 9 3 10 6
2 11 -7 4 -14 3 -18 -3z" />
    <path d="M5023 8358 c-3 -7 -1 -8 5 -4 7 4 12 2 12 -3 0 -6 7 -11 15 -11 8 0
15 -7 15 -15 0 -8 4 -15 9 -15 5 0 7 8 5 18 -6 22 -51 44 -61 30z" />
    <path d="M4405 8328 c3 -31 15 -58 27 -58 5 0 6 4 3 10 -3 5 -8 20 -10 32 -6
31 -22 44 -20 16z" />
    <path d="M4460 8181 c0 -5 7 -14 15 -21 8 -7 15 -21 15 -31 0 -9 6 -24 13 -31
7 -7 28 -34 47 -60 31 -45 50 -59 50 -39 0 5 -8 12 -17 15 -15 6 -15 9 -3 17
12 9 12 10 -2 5 -12 -3 -18 0 -18 9 0 8 -3 15 -7 15 -5 0 -24 29 -42 65 -32
59 -51 80 -51 56z" />
    <path d="M6315 8153 c-4 -13 -12 -23 -17 -23 -5 0 -6 -4 -3 -10 3 -5 1 -10 -4
-10 -6 0 -11 -7 -11 -15 0 -8 -4 -15 -10 -15 -5 0 -10 -7 -10 -15 0 -25 14
-17 28 15 8 17 21 37 29 45 8 8 12 23 10 33 -4 14 -6 14 -12 -5z" />
    <path d="M5745 7723 c4 -10 9 -33 12 -50 3 -18 10 -33 15 -33 6 0 8 16 4 38
-3 20 -7 43 -8 50 -1 6 -8 12 -16 12 -9 0 -12 -6 -7 -17z" />
    <path d="M4979 7697 c-3 -55 -6 -75 -13 -97 -7 -25 -7 -25 13 0 11 13 17 28
15 32 -3 4 -2 8 3 8 13 0 10 59 -4 64 -7 3 -13 0 -14 -7z" />
    <path d="M4957 7533 c-4 -3 -7 -18 -7 -32 0 -14 -7 -57 -14 -95 -8 -38 -13
-73 -10 -77 2 -4 0 -10 -5 -13 -5 -3 -8 -27 -7 -53 1 -27 -1 -52 -5 -58 -16
-25 -33 -135 -20 -135 17 0 24 21 27 74 1 28 5 58 8 66 18 48 26 113 16 125
-7 8 -7 16 -2 19 5 3 10 17 10 32 0 14 4 29 9 33 16 10 26 94 11 85 -10 -6
-11 -4 0 7 20 21 9 43 -11 22z" />
    <path d="M5803 7352 c4 -17 9 -61 13 -96 4 -36 11 -63 15 -60 5 3 6 31 3 62
-3 31 -6 63 -6 70 -1 6 -5 12 -9 12 -5 0 -6 6 -3 14 3 8 0 17 -7 22 -9 5 -11
-1 -6 -24z" />
    <path d="M5906 7200 c4 -19 10 -39 14 -45 4 -5 6 -28 5 -51 -1 -29 3 -41 13
-41 10 0 12 8 8 30 -3 16 -6 40 -6 54 0 16 -4 22 -12 17 -7 -5 -8 -3 -2 7 12
20 14 38 3 45 -5 3 -9 -1 -10 -8 0 -7 -5 -4 -10 7 -6 15 -7 11 -3 -15z" />
    <path d="M4990 7195 c-7 -8 -9 -15 -5 -15 4 0 3 -6 -2 -12 -6 -7 -13 -26 -16
-43 -4 -16 -4 -24 -1 -17 3 6 11 9 16 6 7 -4 8 -2 4 4 -4 7 1 28 10 47 18 38
15 55 -6 30z" />
    <path d="M4941 6996 c-7 -35 -12 -77 -10 -92 1 -16 -1 -36 -4 -44 -30 -79 -41
-157 -22 -157 8 0 15 4 15 9 0 4 -4 8 -9 8 -4 0 -6 11 -3 25 2 14 7 23 11 20
9 -10 28 85 26 132 -1 23 2 40 7 37 5 -3 8 -2 7 3 -1 4 1 16 5 25 7 16 3 85
-6 94 -2 2 -10 -25 -17 -60z" />
    <path d="M4864 7015 c-3 -19 -4 -46 -2 -60 3 -14 2 -25 -2 -25 -12 0 -29 -94
-19 -106 6 -8 6 -13 -1 -16 -5 -1 -13 -23 -16 -47 -5 -34 -3 -42 7 -39 17 5
26 45 28 111 0 27 6 57 11 67 16 29 24 136 12 144 -7 4 -14 -7 -18 -29z" />
    <path d="M5947 6943 c-11 -11 -8 -91 4 -98 6 -4 8 -12 6 -19 -2 -6 2 -24 9
-41 13 -30 13 -30 13 0 1 38 -9 76 -18 71 -4 -3 -6 18 -5 45 1 52 1 53 -9 42z" />
    <path d="M5864 6857 c3 -10 6 -37 6 -58 0 -24 4 -38 10 -34 14 9 7 82 -9 97
-12 11 -13 10 -7 -5z" />
    <path d="M5885 6648 c7 -94 10 -108 23 -108 5 0 0 133 -7 193 -1 4 -6 7 -12 7
-8 0 -9 -27 -4 -92z" />
    <path d="M4817 6703 c-4 -3 -7 -21 -7 -39 0 -18 -4 -36 -10 -39 -5 -3 -7 -19
-3 -35 3 -18 1 -30 -5 -30 -6 0 -10 -17 -9 -40 2 -22 -1 -41 -4 -42 -4 -2 -10
-19 -14 -39 -7 -37 20 -60 49 -41 6 3 18 5 27 4 19 -3 43 69 33 100 -4 15 -3
18 7 13 9 -6 11 -2 7 12 -3 11 -1 28 4 37 7 12 5 16 -8 16 -10 0 -14 -3 -11
-6 3 -4 2 -15 -3 -25 -6 -9 -12 -37 -14 -61 -6 -66 -65 -101 -61 -36 1 24 7
57 14 73 7 17 10 44 8 61 -3 18 -2 36 3 40 13 14 24 84 13 84 -5 0 -13 -3 -16
-7z" />
    <path d="M5975 6631 c-3 -6 -5 -44 -4 -86 1 -46 -3 -80 -10 -89 -15 -18 -51
-17 -44 1 3 7 -1 13 -8 13 -11 0 -11 3 1 10 13 8 12 10 -2 10 -22 0 -23 -28
-2 -58 17 -25 42 -29 50 -7 4 8 14 15 24 15 17 0 18 8 14 97 -5 101 -8 112
-19 94z" />
  </g>
  <g transform="translate(0.000000,1635.000000) scale(0.100000,-0.100000)" fill="#131313" stroke="none">
    <path d="M5286 10288 c-24 -12 -36 -24 -32 -34 3 -7 0 -13 -6 -11 -7 1 -12 -3
-13 -10 0 -6 -3 -15 -7 -19 -12 -11 -10 -34 3 -34 6 0 9 5 7 12 -5 15 84 106
100 100 16 -6 16 4 -1 11 -7 2 -30 -4 -51 -15z" />
    <path d="M5698 10213 c-26 -7 -22 -20 6 -20 14 0 27 6 30 13 5 14 -4 16 -36 7z" />
    <path d="M5765 10210 c7 -11 65 -9 65 3 0 4 -16 7 -36 7 -20 0 -33 -4 -29 -10z" />
    <path d="M4935 10192 c-16 -9 -31 -20 -33 -24 -2 -5 -11 -8 -20 -8 -16 0 -49
-55 -44 -72 1 -5 -2 -8 -7 -8 -5 0 -14 -14 -20 -31 -14 -40 -14 -52 0 -44 6 4
8 10 5 13 -4 3 4 16 16 29 12 13 18 23 14 23 -7 0 6 18 44 58 13 15 24 30 22
34 -1 4 5 5 13 2 8 -4 15 -1 15 4 0 6 10 12 22 14 23 3 38 28 16 28 -7 0 -26
-8 -43 -18z" />
    <path d="M5000 10200 c0 -5 6 -10 14 -10 8 0 21 -3 30 -6 9 -3 16 -1 16 6 0 6
-4 8 -10 5 -5 -3 -10 -1 -10 4 0 6 -9 11 -20 11 -11 0 -20 -4 -20 -10z" />
    <path d="M5210 10105 c0 -42 4 -64 10 -60 6 3 10 30 10 60 0 30 -4 57 -10 60
-6 4 -10 -18 -10 -60z" />
    <path d="M5611 10149 c-13 -11 -20 -19 -16 -19 4 0 2 -7 -5 -15 -6 -8 -8 -20
-4 -26 4 -8 3 -9 -4 -5 -7 4 -13 2 -13 -3 -2 -14 -6 -30 -9 -33 -7 -10 -6 -37
2 -32 5 3 7 8 4 11 -3 3 6 17 20 31 13 15 23 31 21 36 -2 5 10 22 26 36 36 32
16 49 -22 19z" />
    <path d="M4948 10090 c-29 -33 -51 -70 -45 -76 3 -3 11 5 17 18 7 12 22 33 33
45 11 13 18 25 16 28 -3 2 -12 -4 -21 -15z" />
    <path d="M4886 9961 c-5 -33 -3 -48 7 -59 13 -12 14 -8 10 34 -7 71 -9 74 -17
25z" />
    <path d="M4771 9744 c-17 -14 -31 -22 -31 -18 0 4 -6 -1 -14 -11 -8 -11 -12
-23 -10 -27 3 -5 -1 -8 -9 -8 -17 0 -39 -24 -31 -33 9 -8 64 45 58 55 -3 4 2
5 10 2 8 -3 19 3 25 15 6 11 20 23 31 26 11 3 20 11 20 16 0 16 -17 10 -49
-17z" />
    <path d="M4570 9553 c-33 -34 -60 -66 -60 -72 0 -6 -7 -11 -15 -11 -13 0 -18
-16 -14 -46 0 -3 -7 -11 -17 -18 -10 -8 -13 -15 -7 -19 12 -7 29 10 35 32 2 8
10 22 18 31 8 9 24 27 35 41 11 13 38 43 59 67 60 66 34 62 -34 -5z" />
    <path d="M4569 9421 c10 -7 8 -12 -9 -24 -14 -10 -19 -20 -14 -28 5 -9 10 -6
16 10 4 12 11 20 16 17 4 -2 9 4 9 15 1 12 -5 19 -15 19 -13 0 -14 -2 -3 -9z" />
    <path d="M4417 9345 c-17 -23 -35 -85 -25 -85 9 0 66 98 60 104 -9 10 -16 6
-35 -19z" />
    <path d="M4333 9158 c-9 -18 -18 -40 -19 -48 -10 -56 -10 -70 -4 -70 11 0 31
60 24 71 -3 5 -1 9 4 9 8 0 32 51 32 66 0 16 -23 -2 -37 -28z" />
    <path d="M4514 8912 c-6 -4 -11 -15 -11 -24 0 -11 4 -15 11 -9 6 4 23 11 39
15 15 3 27 11 27 16 0 12 -50 13 -66 2z" />
    <path d="M6120 8864 c0 -9 -5 -12 -12 -8 -7 5 -8 3 -4 -5 6 -9 12 -8 26 4 12
11 20 13 25 5 3 -5 11 -8 16 -5 5 4 14 3 20 -1 8 -5 8 -8 0 -14 -9 -5 -8 -10
4 -20 13 -11 15 -9 15 14 0 19 -7 29 -26 36 -37 15 -64 12 -64 -6z" />
    <path d="M4512 8818 c-8 -8 -9 -15 -1 -25 14 -16 49 -17 49 -2 0 5 5 7 12 3 7
-4 8 -3 4 5 -6 9 -11 9 -21 1 -13 -11 -41 11 -28 23 3 4 4 7 2 7 -3 0 -10 -5
-17 -12z" />
    <path d="M6420 8717 c0 -10 5 -17 10 -17 6 0 10 -9 10 -20 0 -11 4 -20 9 -20
16 0 8 40 -11 57 -17 15 -18 15 -18 0z" />
    <path d="M6474 8601 c4 -5 2 -21 -4 -35 -6 -16 -6 -27 0 -31 6 -4 10 0 11 7 0
7 3 25 5 41 3 15 0 27 -6 27 -6 0 -9 -4 -6 -9z" />
    <path d="M6361 8508 c-17 -39 -22 -78 -10 -78 8 0 10 5 9 25 0 3 7 19 16 36 9
17 12 35 7 40 -5 5 -15 -6 -22 -23z" />
    <path d="M4462 8455 c1 -14 6 -25 10 -25 4 0 7 -3 6 -7 -2 -10 20 -63 26 -63
3 0 -4 27 -16 60 -21 65 -29 75 -26 35z" />
    <path d="M5535 8470 c4 -6 14 -8 23 -6 10 3 29 -1 45 -9 22 -11 27 -11 27 -1
0 8 -16 16 -37 20 -53 8 -65 8 -58 -4z" />
    <path d="M6298 8328 c-7 -24 -19 -48 -27 -54 -8 -7 -11 -16 -6 -24 5 -9 4 -11
-3 -6 -7 4 -12 1 -12 -8 0 -36 47 11 48 48 0 5 4 12 10 15 14 9 23 59 13 66
-6 3 -16 -14 -23 -37z" />
    <path d="M6162 8090 c-14 -24 -15 -30 -3 -30 5 0 13 9 16 20 4 11 11 18 16 15
5 -4 9 -1 9 4 0 18 -24 12 -38 -9z" />
    <path d="M5101 8060 c1 -36 15 -93 19 -75 5 24 -2 91 -11 100 -5 5 -9 -4 -8
-25z" />
    <path d="M4912 7285 c-1 -14 2 -25 7 -25 12 0 23 29 15 41 -10 16 -20 9 -22
-16z" />
    <path d="M4899 7218 c-6 -16 -5 -76 1 -87 5 -9 9 4 11 33 3 37 -5 73 -12 54z" />
    <path d="M5956 6857 c6 -42 10 -56 17 -63 4 -4 7 2 7 14 0 11 -4 23 -10 27 -5
3 -7 12 -4 19 3 8 1 17 -4 20 -5 3 -8 -5 -6 -17z" />
    <path d="M4796 6623 c-15 -72 -15 -102 1 -96 11 4 14 17 11 49 -2 24 0 44 4
44 5 0 8 7 8 15 0 26 -18 16 -24 -12z" />
    <path d="M4863 6451 c-4 -18 -58 -49 -75 -43 -4 1 -5 -5 -2 -13 8 -20 16 -19
37 5 10 12 21 18 26 15 5 -3 14 9 20 25 5 17 8 30 5 30 -3 0 -8 -9 -11 -19z" />
  </g>
  <g transform="translate(0.000000,1635.000000) scale(0.100000,-0.100000)" fill="#f7f7f8" stroke="none">
    <path d="M5290 10301 c0 -6 -12 -17 -26 -24 -15 -8 -23 -17 -18 -20 5 -3 22 5
38 18 18 14 24 25 17 29 -6 4 -11 3 -11 -3z" />
    <path d="M5727 10222 c-16 -7 -27 -15 -25 -16 10 -7 107 7 102 15 -3 5 -10 7
-15 3 -5 -3 -15 -2 -22 3 -8 6 -22 4 -40 -5z" />
    <path d="M4493 9483 c7 -11 -19 -33 -29 -25 -4 4 -4 -1 -1 -10 3 -10 2 -20 -3
-23 -13 -8 -13 -25 0 -25 6 0 10 7 10 15 0 8 4 15 9 15 5 0 11 8 15 18 3 9 9
23 12 30 3 6 1 12 -6 12 -6 0 -9 -3 -7 -7z" />
    <path d="M6329 8438 c-7 -16 -5 -58 2 -58 6 0 8 4 4 9 -3 5 -1 12 5 16 13 8
13 35 0 35 -5 0 -11 -1 -11 -2z" />
    <path d="M4901 7900 c6 -5 19 -6 27 -2 9 3 13 1 9 -5 -4 -6 5 -13 20 -16 27
-5 27 -5 3 13 -13 10 -34 18 -48 18 -16 0 -20 -3 -11 -8z" />
    <path d="M4760 7844 c0 -10 5 -14 15 -10 8 3 18 -2 23 -11 6 -10 12 -12 16 -5
4 6 -7 18 -24 27 -27 14 -30 14 -30 -1z" />
  </g>
  <g transform="translate(0.000000,1635.000000) scale(0.100000,-0.100000)" fill="#fe99ca" stroke="none">
    <path d="M6340 8739 c0 -8 -20 -10 -64 -7 -55 5 -68 3 -85 -14 -36 -33 -21
-108 21 -108 8 0 19 -5 26 -12 23 -23 153 -21 159 2 3 11 11 20 19 20 19 0 29
47 15 76 -6 14 -19 24 -31 24 -11 0 -23 7 -26 15 -7 17 -34 20 -34 4z m43 -95
c-8 -21 -33 -17 -33 5 0 14 5 18 19 14 12 -3 17 -11 14 -19z" />
    <path d="M4428 8723 c-16 -3 -28 -9 -28 -14 0 -7 -12 -8 -30 -4 -23 5 -30 3
-30 -9 0 -9 -4 -16 -10 -16 -5 0 -10 -7 -10 -15 0 -8 -4 -15 -10 -15 -26 0
-22 -52 5 -76 30 -26 65 -32 65 -11 0 8 3 9 8 1 21 -31 124 -22 163 15 21 19
18 119 -3 136 -7 5 -96 11 -120 8z m22 -48 c0 -8 -9 -15 -20 -15 -11 0 -20 7
-20 15 0 8 9 15 20 15 11 0 20 -7 20 -15z m0 -60 c0 -8 -6 -15 -14 -15 -8 0
-17 -6 -19 -12 -3 -7 -6 -1 -6 15 -1 21 4 27 19 27 11 0 20 -7 20 -15z" />
  </g>
  <g transform="translate(0.000000,1635.000000) scale(0.100000,-0.100000)" fill="#101010" stroke="none">
    <path d="M4956 10202 c-3 -5 8 -9 24 -10 16 0 32 4 35 9 4 5 -7 9 -24 9 -16 0
-32 -4 -35 -8z" />
    <path d="M4546 9531 c-29 -32 -14 -38 19 -8 21 19 25 27 14 27 -9 0 -24 -9
-33 -19z" />
    <path d="M4507 9493 c-4 -3 -7 -15 -7 -26 0 -11 -3 -17 -7 -14 -7 7 -73 -91
-73 -109 0 -6 -6 -17 -14 -23 -15 -12 -73 -142 -79 -178 -2 -10 -7 -26 -12
-36 -4 -10 -4 -21 -1 -24 4 -4 9 3 13 15 3 12 10 22 15 22 5 0 6 5 3 10 -4 6
1 23 11 37 9 15 18 34 19 42 2 20 30 83 42 94 4 5 8 12 9 15 1 17 30 68 44 79
8 7 11 13 7 13 -4 0 4 11 18 25 14 14 25 35 25 45 0 21 -3 24 -13 13z" />
    <path d="M4945 7458 c-4 -18 -9 -42 -12 -53 -3 -13 -2 -17 5 -10 10 10 26 95
18 95 -2 0 -7 -15 -11 -32z" />
    <path d="M4882 7108 c0 -7 -5 -30 -11 -51 -9 -37 -9 -38 8 -20 10 10 14 19 10
21 -5 2 -4 13 2 24 7 12 7 24 2 29 -6 6 -10 5 -11 -3z" />
    <path d="M4859 6978 c-1 -13 -3 -32 -5 -43 -11 -61 -12 -77 -4 -69 10 10 24
134 16 134 -3 0 -7 -10 -7 -22z" />
    <path d="M5981 6493 c5 -21 -15 -62 -32 -66 -10 -3 -19 0 -19 6 0 6 -3 7 -7 4
-3 -4 -13 1 -21 11 -12 15 -12 13 1 -8 19 -34 60 -38 81 -8 18 26 21 54 6 63
-6 4 -10 3 -9 -2z" />
    <path d="M4851 6423 c0 -7 -8 -10 -16 -7 -11 5 -13 2 -9 -10 4 -12 2 -15 -9
-10 -8 3 -18 0 -23 -7 -5 -9 1 -10 26 -5 41 8 43 10 37 33 -3 10 -5 13 -6 6z" />
  </g>
  <g transform="translate(0.000000,1635.000000) scale(0.100000,-0.100000)" fill="#0b0b0c" stroke="none">
    <path d="M4823 9825 c9 -31 8 -36 -14 -54 -30 -25 -13 -27 19 -3 22 17 22 19
7 55 -19 47 -27 48 -12 2z" />
    <path d="M4355 9211 c3 -5 1 -11 -5 -13 -5 -1 -11 -14 -14 -28 -2 -14 -5 -25
-6 -25 -1 0 -3 -8 -5 -18 -2 -11 0 -16 3 -12 4 4 8 11 8 16 1 5 2 10 4 12 1 1
3 11 5 22 2 11 11 25 20 31 14 11 14 12 0 18 -9 3 -14 2 -10 -3z" />
    <path d="M6113 8864 c-15 -15 -21 -21 -12 -15 9 6 20 7 24 3 5 -4 5 -1 1 6 -5
8 1 12 19 12 15 0 24 4 20 10 -10 16 -22 12 -52 -16z" />
    <path d="M6411 8614 c-7 -8 -11 -17 -8 -20 7 -8 35 7 41 22 7 19 -15 17 -33
-2z" />
    <path d="M5987 6463 c5 -12 3 -14 -7 -8 -9 6 -11 4 -6 -4 5 -7 0 -18 -10 -26
-11 -8 -14 -15 -8 -15 16 0 44 34 44 53 0 9 -4 17 -10 17 -5 0 -6 -7 -3 -17z" />
  </g>
  <g transform="translate(0.000000,1635.000000) scale(0.100000,-0.100000)" fill="#282828" stroke="none">
    <path d="M5557 8393 c-4 -3 -2 -12 4 -19 23 -28 6 -59 -34 -62 -42 -4 -41 -22
1 -22 39 0 52 12 58 51 6 34 -14 68 -29 52z" />
    <path d="M5191 8381 c-19 -3 -37 -12 -39 -20 -4 -10 0 -12 14 -6 11 4 49 10
87 12 37 3 67 10 67 14 0 10 -76 10 -129 0z" />
    <path d="M5333 8298 c2 -7 10 -12 17 -10 7 1 32 3 56 4 72 1 61 18 -11 18 -49
0 -65 -3 -62 -12z" />
    <path d="M5190 8290 c0 -11 95 -9 106 3 4 4 -18 7 -49 7 -31 0 -57 -4 -57 -10z" />
    <path d="M5120 7863 c0 -5 -16 -7 -35 -5 -21 3 -35 0 -35 -7 0 -6 6 -11 13
-12 6 0 20 -2 29 -4 23 -4 55 19 40 29 -7 4 -12 3 -12 -1z" />
    <path d="M5195 7723 c-41 -10 -39 -23 4 -23 38 0 42 2 31 15 -7 8 -13 14 -14
14 0 -1 -10 -3 -21 -6z" />
  </g>
  <g transform="translate(0.000000,1635.000000) scale(0.100000,-0.100000)" fill="#030303" stroke="none">
    <path d="M4454 9412 c-47 -77 -66 -116 -47 -97 11 11 19 22 17 24 -1 2 8 21
22 43 14 22 24 42 22 43 -2 2 -8 -4 -14 -13z" />
    <path d="M5877 6734 c6 -68 11 -77 12 -24 0 25 -3 51 -8 59 -5 8 -7 -5 -4 -35z" />
  </g>
  <g transform="translate(0.000000,1635.000000) scale(0.100000,-0.100000)" fill="#f1f1f1" stroke="none">
    <path d="M5157 8363 c-14 -14 -6 -19 23 -15 17 2 33 8 36 13 6 10 -49 12 -59
2z" />
  </g>
  <g transform="translate(0.000000,1635.000000) scale(0.100000,-0.100000)" fill="#ff96c7" stroke="none">
    <path d="M6248 8743 c-44 -11 -17 -30 37 -25 46 4 55 2 55 -12 0 -22 20 -21
21 2 0 10 3 12 6 4 2 -6 9 -10 13 -7 40 25 -67 55 -132 38z" />
    <path d="M4445 8721 c-27 -8 -30 -31 -4 -31 11 0 18 4 14 9 -3 5 -1 12 4 15 5
4 13 1 16 -5 4 -5 13 -8 21 -5 8 3 17 -1 20 -9 4 -8 10 -12 16 -9 5 3 12 -3
15 -15 6 -23 33 -29 33 -7 0 19 -29 48 -41 40 -5 -3 -11 1 -14 8 -6 15 -48 20
-80 9z" />
    <path d="M4362 8713 c-17 -7 -5 -23 19 -23 10 0 19 7 19 15 0 15 -14 18 -38 8z" />
    <path d="M4317 8683 c-14 -13 -6 -41 13 -46 23 -6 26 3 8 21 -9 9 -9 12 0 12
7 0 12 5 12 10 0 11 -23 14 -33 3z" />
    <path d="M6340 8670 c0 -5 9 -10 20 -10 11 0 20 -4 20 -10 0 -5 -9 -10 -19
-10 -11 0 -22 -6 -24 -12 -4 -10 -8 -9 -17 2 -9 12 -10 11 -5 -7 5 -17 2 -23
-9 -23 -8 0 -18 -4 -21 -10 -4 -6 13 -10 45 -10 30 0 49 4 45 10 -3 5 -12 7
-20 3 -8 -3 -15 -1 -15 5 0 16 31 23 46 11 17 -14 44 -5 44 15 0 9 -7 13 -19
11 -14 -2 -18 1 -14 14 3 13 -3 20 -19 24 -32 9 -38 9 -38 -3z" />
    <path d="M4413 8643 c-7 -3 -13 -15 -13 -28 0 -25 -30 -42 -51 -29 -8 4 -9 3
-5 -4 4 -7 2 -12 -3 -12 -6 0 -11 5 -11 10 0 6 -4 10 -10 10 -5 0 -10 -7 -10
-16 0 -13 7 -15 30 -11 17 4 35 1 42 -6 18 -17 78 -19 72 -3 -3 8 -16 11 -32
8 -26 -4 -26 -4 -7 12 11 8 26 16 33 16 8 0 12 10 10 27 -3 25 -20 35 -45 26z" />
    <path d="M4490 8574 c0 -14 -3 -14 -15 -4 -13 11 -14 10 -9 -4 9 -24 49 -21
51 4 1 11 -4 20 -13 20 -8 0 -14 -7 -14 -16z" />
  </g>
  <g transform="translate(0.000000,1635.000000) scale(0.100000,-0.100000)" fill="#e7e7e7" stroke="none" />
  <g transform="translate(0.000000,1635.000000) scale(0.100000,-0.100000)" fill="#b2b2b2" stroke="none">
    <path d="M5340 8380 c0 -5 18 -10 40 -10 22 0 40 5 40 10 0 6 -18 10 -40 10
-22 0 -40 -4 -40 -10z" />
  </g>
  <g transform="translate(0.000000,1635.000000) scale(0.100000,-0.100000)" fill="#cdcdcd" stroke="none">
    <path d="M5405 8381 c14 -13 176 -19 172 -6 -2 6 -44 11 -93 13 -57 2 -85 -1
-79 -7z" />
  </g>
  <g transform="translate(0.000000,1635.000000) scale(0.100000,-0.100000)" fill="#3f3f3f" stroke="none">
    <path d="M5305 8380 c-7 -11 25 -11 70 0 27 7 25 8 -17 9 -26 0 -50 -3 -53 -9z" />
    <path d="M5510 8310 c0 -5 13 -10 29 -10 17 0 33 5 36 10 4 6 -8 10 -29 10
-20 0 -36 -4 -36 -10z" />
  </g>
  <g transform="translate(0.000000,1635.000000) scale(0.100000,-0.100000)" fill="#d2d2d2" stroke="none">
    <path d="M5464 8309 c-4 -8 10 -9 51 -5 76 7 83 16 12 16 -31 0 -59 -5 -63
-11z" />
  </g>
  <g transform="translate(0.000000,1635.000000) scale(0.100000,-0.100000)" fill="#ebebec" stroke="none" />
  <g transform="translate(0.000000,1635.000000) scale(0.100000,-0.100000)" fill="#ff96cd" stroke="none">
    <path d="M6269 8745 c-3 -2 -16 -7 -30 -9 -13 -2 -26 -5 -28 -5 -2 -1 2 -8 9
-16 13 -16 35 -10 24 6 -3 6 4 7 19 4 17 -5 26 -2 30 9 6 15 -13 23 -24 11z" />
    <path d="M6357 8728 c-3 -10 5 -15 25 -16 20 -2 28 2 26 10 -6 18 -44 22 -51
6z" />
    <path d="M4370 8710 c-13 -8 -11 -11 8 -16 13 -4 22 -14 22 -25 0 -11 5 -20
10 -20 40 -5 45 -3 48 24 3 23 0 27 -23 27 -15 0 -24 4 -20 10 8 13 -25 13
-45 0z" />
    <path d="M4510 8709 c0 -5 -6 -7 -12 -3 -9 5 -9 2 1 -9 18 -22 28 -21 34 3 3
13 0 20 -9 20 -8 0 -14 -5 -14 -11z" />
    <path d="M4333 8556 c6 -17 67 -19 67 -3 0 11 -11 15 -35 14 -20 -1 -34 -5
-32 -11z" />
  </g>
  <g transform="translate(0.000000,1635.000000) scale(0.100000,-0.100000)" fill="#575757" stroke="none">
    <path d="M5438 8383 c23 -2 59 -2 80 0 20 2 1 4 -43 4 -44 0 -61 -2 -37 -4z" />
  </g>
  <g transform="translate(0.000000,1635.000000) scale(0.100000,-0.100000)" fill="#f79cc7" stroke="none">
    <path d="M6281 8751 c-8 -5 -20 -7 -28 -4 -7 3 -13 0 -13 -7 0 -8 8 -10 23 -6
12 3 38 6 57 6 26 0 31 3 20 10 -19 12 -41 12 -59 1z" />
    <path d="M6360 8741 c0 -11 70 -54 77 -47 14 14 -19 47 -35 34 -9 -7 -13 -8
-9 -2 4 7 0 15 -9 18 -21 8 -24 8 -24 -3z" />
    <path d="M4353 8710 c-24 -10 -43 -25 -43 -33 0 -8 -7 -20 -15 -27 -17 -14
-20 -40 -4 -40 5 0 17 16 25 35 8 20 19 33 24 30 6 -3 10 0 10 8 0 15 29 27
68 27 13 0 20 4 17 10 -9 15 -35 12 -82 -10z" />
    <path d="M4510 8714 c0 -8 5 -12 10 -9 12 7 42 -20 33 -29 -4 -3 -1 -6 6 -6 7
0 9 -4 6 -10 -3 -5 -2 -10 4 -10 24 0 20 23 -9 50 -36 34 -50 38 -50 14z" />
    <path d="M6184 8722 c-38 -25 -19 -98 32 -120 35 -17 49 -15 34 3 -7 8 -21 15
-32 15 -10 0 -16 5 -13 10 3 6 -1 10 -9 10 -24 0 -20 46 6 70 21 20 8 30 -18
12z" />
    <path d="M6423 8650 c-1 -11 4 -20 13 -20 8 0 14 9 14 20 0 11 -6 20 -13 20
-7 0 -13 -9 -14 -20z" />
  </g>
  <g transform="translate(0.000000,1635.000000) scale(0.100000,-0.100000)" fill="#939393" stroke="none" />
  <g transform="translate(0.000000,1635.000000) scale(0.100000,-0.100000)" fill="#fd9ac5" stroke="none">
    <path d="M4551 8671 c-23 -20 -23 -20 9 -36 31 -16 31 -16 26 15 -6 42 -9 44
-35 21z" />
    <path d="M6390 8680 c0 -5 -11 -10 -25 -10 -18 0 -25 -5 -25 -20 0 -26 45 -28
54 -2 3 9 9 23 12 30 3 6 1 12 -5 12 -6 0 -11 -4 -11 -10z" />
  </g>
  <g transform="translate(0.000000,1635.000000) scale(0.100000,-0.100000)" fill="#f0aace" stroke="none">
    <path d="M6182 8721 c-12 -10 -19 -21 -16 -24 3 -3 11 -1 18 4 6 5 20 16 31
24 16 12 17 14 4 15 -9 0 -26 -8 -37 -19z" />
    <path d="M6428 8703 c-4 -24 -3 -39 6 -45 5 -3 -1 -18 -13 -33 -11 -15 -21
-24 -21 -19 0 4 -5 3 -12 -4 -7 -7 -35 -13 -62 -14 -51 -1 -51 -1 -1 -7 49 -6
118 14 108 32 -2 4 0 7 5 7 15 0 22 27 15 60 -5 27 -21 41 -25 23z" />
    <path d="M6163 8645 c0 -16 73 -58 90 -52 7 3 5 6 -5 6 -10 1 -18 6 -18 11 0
6 -3 9 -7 9 -19 -3 -34 2 -29 9 2 4 -3 13 -13 19 -14 9 -18 8 -18 -2z" />
  </g>
  <g transform="translate(0.000000,1635.000000) scale(0.100000,-0.100000)" fill="#7a7a7a" stroke="none" />
  <g transform="translate(0.000000,1635.000000) scale(0.100000,-0.100000)" fill="#404042" stroke="none" />
  <g transform="translate(0.000000,1635.000000) scale(0.100000,-0.100000)" fill="#fff3fd" stroke="none" />
  <g transform="translate(0.000000,1635.000000) scale(0.100000,-0.100000)" fill="#656366" stroke="none" />
  <g transform="translate(0.000000,1635.000000) scale(0.100000,-0.100000)" fill="#a5a1a2" stroke="none" />
  <g transform="translate(0.000000,1635.000000) scale(0.100000,-0.100000)" fill="#737373" stroke="none" />
  <g transform="translate(0.000000,1635.000000) scale(0.100000,-0.100000)" fill="#9b9b9b" stroke="none" />
  <g transform="translate(0.000000,1635.000000) scale(0.100000,-0.100000)" fill="#5c5c5c" stroke="none" />
  <g transform="translate(0.000000,1635.000000) scale(0.100000,-0.100000)" fill="#ff9ad2" stroke="none">
    <path d="M6370 8724 c0 -11 61 -31 66 -22 5 7 2 8 -6 3 -9 -6 -12 -4 -8 7 5
11 -1 15 -23 15 -16 0 -29 -2 -29 -3z" />
  </g>
  <g transform="translate(0.000000,1635.000000) scale(0.100000,-0.100000)" fill="#281519" stroke="none" />
  <g transform="translate(0.000000,1635.000000) scale(0.100000,-0.100000)" fill="#595758" stroke="none" />
  <g transform="translate(0.000000,1635.000000) scale(0.100000,-0.100000)" fill="#201a1c" stroke="none" />
  <g transform="translate(0.000000,1635.000000) scale(0.100000,-0.100000)" fill="#af7a98" stroke="none" />
  <g transform="translate(0.000000,1635.000000) scale(0.100000,-0.100000)" fill="#003300" stroke="none" />
  <g transform="translate(0.000000,1635.000000) scale(0.100000,-0.100000)" fill="#000000" stroke="none" />
  <g transform="translate(0.000000,1635.000000) scale(0.100000,-0.100000)" fill="#000033" stroke="none" />
  <g transform="translate(0.000000,1635.000000) scale(0.100000,-0.100000)" fill="#000066" stroke="none" />
  <g transform="translate(0.000000,1635.000000) scale(0.100000,-0.100000)" fill="#000099" stroke="none" />
  <g transform="translate(0.000000,1635.000000) scale(0.100000,-0.100000)" fill="#0000cc" stroke="none" />
  <g transform="translate(0.000000,1635.000000) scale(0.100000,-0.100000)" fill="#0000ff" stroke="none" />
  <g transform="translate(0.000000,1635.000000) scale(0.100000,-0.100000)" fill="#003333" stroke="none" />
</svg>